<svg preserveAspectRatio="none" overflow="visible" style="display: block;" width="24" height="24" viewBox="0 0 24 24" fill="none" xmlns="http://www.w3.org/2000/svg">
<g id="loom" opacity="0.75">
<path id="Vector" d="M9 12C9 10.3431 10.3431 9 12 9C13.6569 9 15 10.3431 15 12C15 13.6569 13.6569 15 12 15C10.3431 15 9 13.6569 9 12Z" fill="#2B2B2B" stroke="#2B2B2B" stroke-width="1.5"/>
<path id="Vector_2" d="M12.2851 9.0131L12.7603 4.03573M11.7149 14.9859L11.2397 19.9633" stroke="#2B2B2B" stroke-width="1.5" stroke-linecap="round" stroke-linejoin="round"/>
<path id="Vector_3" d="M13.9994 14.2365L17.3313 17.9646M10.0012 9.76277L6.66933 6.03468" stroke="#2B2B2B" stroke-width="1.5" stroke-linecap="round" stroke-linejoin="round"/>
<path id="Vector_4" d="M14.2381 9.93047L17.9683 6.60094M9.76192 13.9259L6.03172 17.2555" stroke="#2B2B2B" stroke-width="1.5" stroke-linecap="round" stroke-linejoin="round"/>
<path id="Vector_5" d="M14.9958 12.1478L19.9897 12.3943M9.00314 11.8521L4.00921 11.6057" stroke="#2B2B2B" stroke-width="1.5" stroke-linecap="round" stroke-linejoin="round"/>
</g>
</svg>
