<svg preserveAspectRatio="none" overflow="visible" style="display: block;" width="71.3574" height="2.42319" viewBox="0 0 71.3574 2.42319" fill="none" xmlns="http://www.w3.org/2000/svg">
<g id="OUTPATIENT SURGERY &#38; ENDOSCOPY CLINIC">
<mask id="path-1-inside-1_0_39" fill="white">
<path d="M2.20687 1.21044C2.20687 1.46741 2.15816 1.68603 2.06074 1.86629C1.96409 2.04656 1.83215 2.18425 1.66493 2.27936C1.49848 2.37371 1.31131 2.42089 1.10343 2.42089C0.894023 2.42089 0.70609 2.37333 0.539635 2.27821C0.373181 2.18309 0.241628 2.0454 0.144977 1.86514C0.0483256 1.68488 0 1.46665 0 1.21044C0 0.953474 0.0483256 0.734858 0.144977 0.554595C0.241628 0.374332 0.373181 0.237026 0.539635 0.142676C0.70609 0.0475587 0.894023 0 1.10343 0C1.31131 0 1.49848 0.0475587 1.66493 0.142676C1.83215 0.237026 1.96409 0.374332 2.06074 0.554595C2.15816 0.734858 2.20687 0.953474 2.20687 1.21044ZM1.70175 1.21044C1.70175 1.04399 1.67682 0.903614 1.62696 0.78932C1.57787 0.675026 1.50845 0.588346 1.4187 0.529282C1.32895 0.470217 1.22386 0.440685 1.10343 0.440685C0.983003 0.440685 0.877914 0.470217 0.788167 0.529282C0.698419 0.588346 0.628616 0.675026 0.578756 0.78932C0.529663 0.903614 0.505117 1.04399 0.505117 1.21044C0.505117 1.3769 0.529663 1.51727 0.578756 1.63157C0.628616 1.74586 0.698419 1.83254 0.788167 1.89161C0.877914 1.95067 0.983003 1.9802 1.10343 1.9802C1.22386 1.9802 1.32895 1.95067 1.4187 1.89161C1.50845 1.83254 1.57787 1.74586 1.62696 1.63157C1.67682 1.51727 1.70175 1.3769 1.70175 1.21044Z"/>
<path d="M3.9958 0.0322172H4.49402V1.56253C4.49402 1.73436 4.45298 1.8847 4.3709 2.01357C4.28959 2.14244 4.17568 2.24293 4.02917 2.31503C3.88266 2.38637 3.71199 2.42204 3.51715 2.42204C3.32155 2.42204 3.15049 2.38637 3.00398 2.31503C2.85747 2.24293 2.74356 2.14244 2.66225 2.01357C2.58094 1.8847 2.54028 1.73436 2.54028 1.56253V0.0322172H3.0385V1.51996C3.0385 1.60971 3.05806 1.68948 3.09718 1.75929C3.13707 1.82909 3.19306 1.88394 3.26517 1.92382C3.33727 1.96371 3.42127 1.98366 3.51715 1.98366C3.6138 1.98366 3.6978 1.96371 3.76913 1.92382C3.84124 1.88394 3.89685 1.82909 3.93597 1.75929C3.97586 1.68948 3.9958 1.60971 3.9958 1.51996V0.0322172Z"/>
<path d="M4.77853 0.442986V0.0322172H6.71386V0.442986H5.99242V2.38867H5.49996V0.442986H4.77853Z"/>
<path d="M6.99693 2.38867V0.0322172H7.92663C8.10535 0.0322172 8.25762 0.066352 8.38342 0.134622C8.50922 0.202124 8.6051 0.296091 8.67107 0.416522C8.7378 0.536185 8.77117 0.674259 8.77117 0.830742C8.77117 0.987225 8.73742 1.1253 8.66992 1.24496C8.60242 1.36463 8.50461 1.45783 8.37651 1.52456C8.24918 1.5913 8.095 1.62466 7.91397 1.62466H7.32141V1.2254H7.83343C7.92931 1.2254 8.00832 1.20891 8.07045 1.17593C8.13335 1.14217 8.18014 1.09577 8.21083 1.0367C8.24228 0.97687 8.258 0.908216 8.258 0.830742C8.258 0.7525 8.24228 0.684231 8.21083 0.625933C8.18014 0.566868 8.13335 0.521227 8.07045 0.48901C8.00755 0.456026 7.92778 0.439534 7.83113 0.439534H7.49515V2.38867H6.99693Z"/>
<path d="M9.19319 2.38867H8.6593L9.47278 0.0322172H10.1148L10.9272 2.38867H10.3933L9.80301 0.570704H9.7846L9.19319 2.38867ZM9.15982 1.46243H10.4209V1.85133H9.15982V1.46243Z"/>
<path d="M10.7974 0.442986V0.0322172H12.7328V0.442986H12.0113V2.38867H11.5189V0.442986H10.7974Z"/>
<path d="M13.5141 0.0322172V2.38867H13.0159V0.0322172H13.5141Z"/>
<path d="M13.8883 2.38867V0.0322172H15.4762V0.442986H14.3865V1.00448H15.3945V1.41525H14.3865V1.9779H15.4808V2.38867H13.8883Z"/>
<path d="M17.8076 0.0322172V2.38867H17.3773L16.3521 0.905532H16.3348V2.38867H15.8366V0.0322172H16.2739L17.291 1.51421H17.3117V0.0322172H17.8076Z"/>
<path d="M18.0939 0.442986V0.0322172H20.0292V0.442986H19.3077V2.38867H18.8153V0.442986H18.0939Z"/>
<path d="M22.3049 0.709928C22.2956 0.617112 22.2561 0.545007 22.1863 0.493613C22.1165 0.442219 22.0218 0.416522 21.9021 0.416522C21.8208 0.416522 21.7522 0.428028 21.6962 0.45104C21.6402 0.473285 21.5972 0.504352 21.5673 0.54424C21.5382 0.584127 21.5236 0.629385 21.5236 0.680012C21.5221 0.722201 21.5309 0.759021 21.5501 0.790471C21.57 0.821921 21.5972 0.849152 21.6317 0.872164C21.6663 0.894409 21.7062 0.91397 21.7514 0.930845C21.7967 0.946954 21.845 0.960761 21.8964 0.972267L22.1081 1.02289C22.2109 1.04591 22.3052 1.07659 22.3911 1.11494C22.4771 1.1533 22.5515 1.20047 22.6144 1.25647C22.6773 1.31246 22.726 1.37843 22.7605 1.45437C22.7958 1.53031 22.8138 1.61738 22.8146 1.71556C22.8138 1.85977 22.777 1.98481 22.7041 2.09066C22.632 2.19575 22.5277 2.27744 22.3911 2.33574C22.2554 2.39327 22.0916 2.42204 21.8998 2.42204C21.7096 2.42204 21.5439 2.39289 21.4028 2.33459C21.2624 2.27629 21.1527 2.19 21.0737 2.0757C20.9955 1.96064 20.9544 1.81835 20.9506 1.64883H21.4327C21.4381 1.72784 21.4607 1.7938 21.5006 1.84673C21.5412 1.89889 21.5953 1.9384 21.6628 1.96525C21.7311 1.99133 21.8082 2.00437 21.8941 2.00437C21.9785 2.00437 22.0517 1.99209 22.1139 1.96755C22.1768 1.943 22.2255 1.90887 22.26 1.86514C22.2945 1.82142 22.3118 1.77118 22.3118 1.71441C22.3118 1.66148 22.296 1.61699 22.2646 1.58094C22.2339 1.54489 22.1886 1.51421 22.1288 1.48889C22.0697 1.46358 21.9973 1.44057 21.9113 1.41986L21.6548 1.35542C21.4561 1.3071 21.2992 1.23154 21.1842 1.12875C21.0691 1.02596 21.012 0.887505 21.0127 0.713379C21.012 0.570704 21.0499 0.446054 21.1266 0.339431C21.2041 0.232807 21.3103 0.14958 21.4453 0.0897478C21.5804 0.0299159 21.7338 0 21.9056 0C22.0805 0 22.2331 0.0299159 22.3635 0.0897478C22.4947 0.14958 22.5967 0.232807 22.6696 0.339431C22.7425 0.446054 22.7801 0.569553 22.7824 0.709928H22.3049Z"/>
<path d="M24.5696 0.0322172H25.0678V1.56253C25.0678 1.73436 25.0267 1.8847 24.9447 2.01357C24.8634 2.14244 24.7494 2.24293 24.6029 2.31503C24.4564 2.38637 24.2857 2.42204 24.0909 2.42204C23.8953 2.42204 23.7242 2.38637 23.5777 2.31503C23.4312 2.24293 23.3173 2.14244 23.236 2.01357C23.1547 1.8847 23.114 1.73436 23.114 1.56253V0.0322172H23.6123V1.51996C23.6123 1.60971 23.6318 1.68948 23.6709 1.75929C23.7108 1.82909 23.7668 1.88394 23.8389 1.92382C23.911 1.96371 23.995 1.98366 24.0909 1.98366C24.1876 1.98366 24.2716 1.96371 24.3429 1.92382C24.415 1.88394 24.4706 1.82909 24.5097 1.75929C24.5496 1.68948 24.5696 1.60971 24.5696 1.51996V0.0322172Z"/>
<path d="M25.442 2.38867V0.0322172H26.3717C26.5497 0.0322172 26.7016 0.0640508 26.8274 0.127718C26.9539 0.190618 27.0502 0.279982 27.1162 0.395811C27.1829 0.510872 27.2163 0.64626 27.2163 0.801977C27.2163 0.95846 27.1825 1.09308 27.115 1.20584C27.0475 1.31783 26.9497 1.40375 26.8216 1.46358C26.6943 1.52341 26.5401 1.55333 26.3591 1.55333H25.7366V1.15291H26.2785C26.3736 1.15291 26.4527 1.13987 26.5156 1.11379C26.5785 1.08771 26.6253 1.04859 26.6559 0.99643C26.6874 0.944269 26.7031 0.879451 26.7031 0.801977C26.7031 0.723735 26.6874 0.657767 26.6559 0.604071C26.6253 0.550376 26.5781 0.509721 26.5144 0.482106C26.4515 0.453725 26.3721 0.439534 26.2762 0.439534H25.9403V2.38867H25.442ZM26.7146 1.3163L27.3003 2.38867H26.7503L26.1773 1.3163H26.7146Z"/>
<path d="M29.0953 0.793922C29.0791 0.737926 29.0565 0.68845 29.0274 0.645493C28.9982 0.60177 28.9625 0.564951 28.9204 0.535035C28.8789 0.504352 28.8314 0.480956 28.7777 0.464847C28.7248 0.448739 28.6661 0.440685 28.6016 0.440685C28.4812 0.440685 28.3754 0.4706 28.2841 0.530432C28.1936 0.590264 28.123 0.677327 28.0724 0.791621C28.0217 0.905148 27.9964 1.04399 27.9964 1.20814C27.9964 1.3723 28.0213 1.5119 28.0712 1.62697C28.1211 1.74203 28.1916 1.82986 28.2829 1.89046C28.3742 1.95029 28.482 1.9802 28.6062 1.9802C28.719 1.9802 28.8153 1.96026 28.895 1.92037C28.9756 1.87972 29.037 1.82257 29.0791 1.74893C29.1221 1.67529 29.1436 1.58823 29.1436 1.48774L29.2448 1.5027H28.6373V1.1276H29.6234V1.42446C29.6234 1.63157 29.5797 1.80953 29.4922 1.95834C29.4048 2.10639 29.2843 2.22068 29.1309 2.30122C28.9775 2.381 28.8018 2.42089 28.6039 2.42089C28.383 2.42089 28.189 2.37218 28.0217 2.27476C27.8545 2.17657 27.7241 2.03735 27.6305 1.85709C27.5377 1.67606 27.4913 1.46128 27.4913 1.21275C27.4913 1.02174 27.5189 0.851453 27.5741 0.701873C27.6301 0.551527 27.7084 0.424192 27.8089 0.31987C27.9094 0.215548 28.0263 0.136156 28.1598 0.0816934C28.2933 0.0272311 28.4379 0 28.5936 0C28.7271 0 28.8513 0.0195604 28.9664 0.0586813C29.0814 0.097035 29.1835 0.151497 29.2724 0.222068C29.3622 0.292639 29.4354 0.376634 29.4922 0.474052C29.549 0.570704 29.5854 0.677327 29.6015 0.793922H29.0953Z"/>
<path d="M29.962 2.38867V0.0322172H31.5498V0.442986H30.4602V1.00448H31.4681V1.41525H30.4602V1.9779H31.5544V2.38867H29.962Z"/>
<path d="M31.9103 2.38867V0.0322172H32.84C33.0179 0.0322172 33.1698 0.0640508 33.2956 0.127718C33.4222 0.190618 33.5184 0.279982 33.5844 0.395811C33.6511 0.510872 33.6845 0.64626 33.6845 0.801977C33.6845 0.95846 33.6508 1.09308 33.5833 1.20584C33.5158 1.31783 33.4179 1.40375 33.2898 1.46358C33.1625 1.52341 33.0083 1.55333 32.8273 1.55333H32.2048V1.15291H32.7468C32.8419 1.15291 32.9209 1.13987 32.9838 1.11379C33.0467 1.08771 33.0935 1.04859 33.1242 0.99643C33.1556 0.944269 33.1713 0.879451 33.1713 0.801977C33.1713 0.723735 33.1556 0.657767 33.1242 0.604071C33.0935 0.550376 33.0463 0.509721 32.9826 0.482106C32.9197 0.453725 32.8403 0.439534 32.7445 0.439534H32.4085V2.38867H31.9103ZM33.1828 1.3163L33.7685 2.38867H33.2185L32.6455 1.3163H33.1828Z"/>
<path d="M33.7648 0.0322172H34.3228L34.8602 1.04706H34.8832L35.4205 0.0322172H35.9786L35.1191 1.55563V2.38867H34.6243V1.55563L33.7648 0.0322172Z"/>
<path d="M37.6427 2.42319C37.4801 2.42319 37.3397 2.39404 37.2216 2.33574C37.1034 2.27744 37.0125 2.19844 36.9489 2.09872C36.886 1.99823 36.8545 1.88624 36.8545 1.76274C36.8545 1.67069 36.8729 1.589 36.9097 1.51766C36.9466 1.44632 36.998 1.38073 37.0639 1.3209C37.1299 1.2603 37.2066 1.20009 37.294 1.14026L37.7508 0.839947C37.8099 0.80236 37.8532 0.762856 37.8809 0.721434C37.9085 0.679245 37.9223 0.633604 37.9223 0.584511C37.9223 0.537719 37.9035 0.49438 37.8659 0.454492C37.8283 0.414604 37.775 0.395044 37.706 0.395811C37.6599 0.395811 37.6201 0.406166 37.5863 0.426877C37.5526 0.446821 37.5261 0.473285 37.5069 0.506269C37.4885 0.538487 37.4793 0.574539 37.4793 0.614427C37.4793 0.66352 37.4931 0.713379 37.5207 0.764006C37.5483 0.814633 37.5852 0.868329 37.6312 0.925092C37.6772 0.981089 37.7274 1.04169 37.7819 1.10689L38.8991 2.38867H38.3883L37.4563 1.35082C37.3949 1.28101 37.3336 1.20814 37.2722 1.1322C37.2116 1.05549 37.161 0.974185 37.1203 0.888273C37.0797 0.801593 37.0593 0.707626 37.0593 0.606373C37.0593 0.492078 37.0858 0.38929 37.1387 0.298009C37.1924 0.206727 37.2676 0.134622 37.3642 0.0816934C37.4609 0.0279982 37.5736 0.00115065 37.7025 0.00115065C37.8283 0.00115065 37.9369 0.0268477 38.0281 0.0782417C38.1202 0.128869 38.1908 0.196371 38.2399 0.280749C38.2897 0.364361 38.3146 0.456409 38.3146 0.556896C38.3146 0.668122 38.287 0.768992 38.2318 0.859507C38.1773 0.949255 38.1006 1.0298 38.0017 1.10114L37.5207 1.44747C37.4555 1.49503 37.4072 1.54374 37.3757 1.5936C37.3451 1.64269 37.3297 1.68987 37.3297 1.73512C37.3297 1.79112 37.3435 1.84136 37.3711 1.88585C37.3988 1.93034 37.4379 1.96563 37.4885 1.99171C37.5391 2.01702 37.5986 2.02968 37.6668 2.02968C37.7497 2.02968 37.8314 2.01089 37.9119 1.9733C37.9932 1.93495 38.0669 1.88087 38.1328 1.81106C38.1996 1.74049 38.2529 1.65688 38.2928 1.56023C38.3327 1.46358 38.3526 1.35657 38.3526 1.23921H38.7588C38.7588 1.38342 38.743 1.51344 38.7116 1.62927C38.6801 1.74433 38.6364 1.84481 38.5804 1.93073C38.5244 2.01587 38.4604 2.08568 38.3883 2.14014C38.3653 2.15471 38.343 2.16852 38.3215 2.18156C38.3001 2.1946 38.2778 2.20841 38.2548 2.22298C38.1674 2.29355 38.0696 2.34456 37.9614 2.37601C37.854 2.40746 37.7478 2.42319 37.6427 2.42319Z"/>
<path d="M39.7912 2.38867V0.0322172H41.3791V0.442986H40.2894V1.00448H41.2974V1.41525H40.2894V1.9779H41.3837V2.38867H39.7912Z"/>
<path d="M43.7105 0.0322172V2.38867H43.2802L42.255 0.905532H42.2377V2.38867H41.7395V0.0322172H42.1767L43.1939 1.51421H43.2146V0.0322172H43.7105Z"/>
<path d="M44.9218 2.38867H44.0865V0.0322172H44.9287C45.1658 0.0322172 45.3698 0.0793923 45.5409 0.173743C45.7119 0.267326 45.8435 0.401947 45.9355 0.577607C46.0283 0.753267 46.0747 0.963446 46.0747 1.20814C46.0747 1.45361 46.0283 1.66455 45.9355 1.84098C45.8435 2.01741 45.7112 2.1528 45.5386 2.24715C45.3667 2.3415 45.1612 2.38867 44.9218 2.38867ZM44.5847 1.96179H44.9011C45.0484 1.96179 45.1723 1.93571 45.2728 1.88355C45.374 1.83062 45.45 1.74893 45.5006 1.63847C45.552 1.52725 45.5777 1.3838 45.5777 1.20814C45.5777 1.03402 45.552 0.891724 45.5006 0.781266C45.45 0.670807 45.3744 0.589497 45.2739 0.537336C45.1734 0.485175 45.0496 0.459094 44.9023 0.459094H44.5847V1.96179Z"/>
<path d="M48.5736 1.21044C48.5736 1.46741 48.5249 1.68603 48.4275 1.86629C48.3308 2.04656 48.1989 2.18425 48.0317 2.27936C47.8652 2.37371 47.678 2.42089 47.4702 2.42089C47.2608 2.42089 47.0728 2.37333 46.9064 2.27821C46.7399 2.18309 46.6084 2.0454 46.5117 1.86514C46.4151 1.68488 46.3667 1.46665 46.3667 1.21044C46.3667 0.953474 46.4151 0.734858 46.5117 0.554595C46.6084 0.374332 46.7399 0.237026 46.9064 0.142676C47.0728 0.0475587 47.2608 0 47.4702 0C47.678 0 47.8652 0.0475587 48.0317 0.142676C48.1989 0.237026 48.3308 0.374332 48.4275 0.554595C48.5249 0.734858 48.5736 0.953474 48.5736 1.21044ZM48.0685 1.21044C48.0685 1.04399 48.0436 0.903614 47.9937 0.78932C47.9446 0.675026 47.8752 0.588346 47.7854 0.529282C47.6957 0.470217 47.5906 0.440685 47.4702 0.440685C47.3497 0.440685 47.2446 0.470217 47.1549 0.529282C47.0652 0.588346 46.9954 0.675026 46.9455 0.78932C46.8964 0.903614 46.8719 1.04399 46.8719 1.21044C46.8719 1.3769 46.8964 1.51727 46.9455 1.63157C46.9954 1.74586 47.0652 1.83254 47.1549 1.89161C47.2446 1.95067 47.3497 1.9802 47.4702 1.9802C47.5906 1.9802 47.6957 1.95067 47.7854 1.89161C47.8752 1.83254 47.9446 1.74586 47.9937 1.63157C48.0436 1.51727 48.0685 1.3769 48.0685 1.21044Z"/>
<path d="M50.1853 0.709928C50.1761 0.617112 50.1366 0.545007 50.0668 0.493613C49.997 0.442219 49.9023 0.416522 49.7826 0.416522C49.7013 0.416522 49.6327 0.428028 49.5767 0.45104C49.5207 0.473285 49.4777 0.504352 49.4478 0.54424C49.4187 0.584127 49.4041 0.629385 49.4041 0.680012C49.4026 0.722201 49.4114 0.759021 49.4305 0.790471C49.4505 0.821921 49.4777 0.849152 49.5122 0.872164C49.5468 0.894409 49.5866 0.91397 49.6319 0.930845C49.6772 0.946954 49.7255 0.960761 49.7769 0.972267L49.9886 1.02289C50.0914 1.04591 50.1857 1.07659 50.2716 1.11494C50.3576 1.1533 50.432 1.20047 50.4949 1.25647C50.5578 1.31246 50.6065 1.37843 50.641 1.45437C50.6763 1.53031 50.6943 1.61738 50.6951 1.71556C50.6943 1.85977 50.6575 1.98481 50.5846 2.09066C50.5125 2.19575 50.4082 2.27744 50.2716 2.33574C50.1359 2.39327 49.9721 2.42204 49.7803 2.42204C49.5901 2.42204 49.4244 2.39289 49.2833 2.33459C49.1429 2.27629 49.0332 2.19 48.9542 2.0757C48.8759 1.96064 48.8349 1.81835 48.8311 1.64883H49.3132C49.3186 1.72784 49.3412 1.7938 49.3811 1.84673C49.4217 1.89889 49.4758 1.9384 49.5433 1.96525C49.6116 1.99133 49.6887 2.00437 49.7746 2.00437C49.859 2.00437 49.9322 1.99209 49.9943 1.96755C50.0572 1.943 50.106 1.90887 50.1405 1.86514C50.175 1.82142 50.1923 1.77118 50.1923 1.71441C50.1923 1.66148 50.1765 1.61699 50.1451 1.58094C50.1144 1.54489 50.0691 1.51421 50.0093 1.48889C49.9502 1.46358 49.8778 1.44057 49.7918 1.41986L49.5353 1.35542C49.3366 1.3071 49.1797 1.23154 49.0647 1.12875C48.9496 1.02596 48.8924 0.887505 48.8932 0.713379C48.8924 0.570704 48.9304 0.446054 49.0071 0.339431C49.0846 0.232807 49.1908 0.14958 49.3258 0.0897478C49.4608 0.0299159 49.6143 0 49.7861 0C49.961 0 50.1136 0.0299159 50.244 0.0897478C50.3752 0.14958 50.4772 0.232807 50.5501 0.339431C50.623 0.446054 50.6605 0.569553 50.6628 0.709928H50.1853Z"/>
<path d="M53.0737 0.857206H52.5697C52.5605 0.792005 52.5417 0.734091 52.5133 0.683464C52.485 0.63207 52.4485 0.588346 52.404 0.552294C52.3595 0.516241 52.3081 0.488627 52.2498 0.46945C52.1923 0.450273 52.1298 0.440685 52.0623 0.440685C51.9403 0.440685 51.8341 0.470984 51.7436 0.531583C51.6531 0.591415 51.5829 0.678861 51.533 0.793922C51.4832 0.908216 51.4582 1.04706 51.4582 1.21044C51.4582 1.37843 51.4832 1.51958 51.533 1.63387C51.5836 1.74816 51.6542 1.83446 51.7447 1.89276C51.8353 1.95105 51.94 1.9802 52.0588 1.9802C52.1256 1.9802 52.1873 1.97138 52.2441 1.95374C52.3016 1.9361 52.3526 1.9104 52.3971 1.87665C52.4416 1.84213 52.4784 1.80032 52.5076 1.75123C52.5375 1.70214 52.5582 1.64614 52.5697 1.58324L53.0737 1.58554C53.0606 1.6937 53.028 1.79802 52.9759 1.89851C52.9245 1.99823 52.8551 2.08759 52.7676 2.1666C52.6809 2.24484 52.5774 2.30698 52.457 2.353C52.3373 2.39826 52.2019 2.42089 52.0508 2.42089C51.8406 2.42089 51.6527 2.37333 51.487 2.27821C51.3221 2.18309 51.1917 2.0454 51.0958 1.86514C51.0007 1.68488 50.9531 1.46665 50.9531 1.21044C50.9531 0.953474 51.0014 0.734858 51.0981 0.554595C51.1947 0.374332 51.3259 0.237026 51.4916 0.142676C51.6573 0.0475587 51.8437 0 52.0508 0C52.1873 0 52.3139 0.0191769 52.4305 0.0575306C52.5479 0.0958844 52.6518 0.151881 52.7423 0.22552C52.8328 0.298392 52.9065 0.387756 52.9632 0.493613C53.0208 0.599469 53.0576 0.720667 53.0737 0.857206Z"/>
<path d="M55.5608 1.21044C55.5608 1.46741 55.512 1.68603 55.4146 1.86629C55.318 2.04656 55.186 2.18425 55.0188 2.27936C54.8524 2.37371 54.6652 2.42089 54.4573 2.42089C54.2479 2.42089 54.06 2.37333 53.8935 2.27821C53.7271 2.18309 53.5955 2.0454 53.4989 1.86514C53.4022 1.68488 53.3539 1.46665 53.3539 1.21044C53.3539 0.953474 53.4022 0.734858 53.4989 0.554595C53.5955 0.374332 53.7271 0.237026 53.8935 0.142676C54.06 0.0475587 54.2479 0 54.4573 0C54.6652 0 54.8524 0.0475587 55.0188 0.142676C55.186 0.237026 55.318 0.374332 55.4146 0.554595C55.512 0.734858 55.5608 0.953474 55.5608 1.21044ZM55.0556 1.21044C55.0556 1.04399 55.0307 0.903614 54.9809 0.78932C54.9318 0.675026 54.8623 0.588346 54.7726 0.529282C54.6828 0.470217 54.5778 0.440685 54.4573 0.440685C54.3369 0.440685 54.2318 0.470217 54.1421 0.529282C54.0523 0.588346 53.9825 0.675026 53.9326 0.78932C53.8836 0.903614 53.859 1.04399 53.859 1.21044C53.859 1.3769 53.8836 1.51727 53.9326 1.63157C53.9825 1.74586 54.0523 1.83254 54.1421 1.89161C54.2318 1.95067 54.3369 1.9802 54.4573 1.9802C54.5778 1.9802 54.6828 1.95067 54.7726 1.89161C54.8623 1.83254 54.9318 1.74586 54.9809 1.63157C55.0307 1.51727 55.0556 1.3769 55.0556 1.21044Z"/>
<path d="M55.8942 2.38867V0.0322172H56.8239C57.0026 0.0322172 57.1549 0.066352 57.2807 0.134622C57.4065 0.202124 57.5023 0.296091 57.5683 0.416522C57.635 0.536185 57.6684 0.674259 57.6684 0.830742C57.6684 0.987225 57.6347 1.1253 57.5672 1.24496C57.4997 1.36463 57.4019 1.45783 57.2738 1.52456C57.1464 1.5913 56.9922 1.62466 56.8112 1.62466H56.2186V1.2254H56.7307C56.8266 1.2254 56.9056 1.20891 56.9677 1.17593C57.0306 1.14217 57.0774 1.09577 57.1081 1.0367C57.1395 0.97687 57.1552 0.908216 57.1552 0.830742C57.1552 0.7525 57.1395 0.684231 57.1081 0.625933C57.0774 0.566868 57.0306 0.521227 56.9677 0.48901C56.9048 0.456026 56.825 0.439534 56.7284 0.439534H56.3924V2.38867H55.8942Z"/>
<path d="M57.8183 0.0322172H58.3763L58.9137 1.04706H58.9367L59.474 0.0322172H60.0321L59.1726 1.55563V2.38867H58.6778V1.55563L57.8183 0.0322172Z"/>
<path d="M63.062 0.857206H62.558C62.5488 0.792005 62.53 0.734091 62.5016 0.683464C62.4732 0.63207 62.4368 0.588346 62.3923 0.552294C62.3478 0.516241 62.2964 0.488627 62.2381 0.46945C62.1806 0.450273 62.1181 0.440685 62.0506 0.440685C61.9286 0.440685 61.8224 0.470984 61.7319 0.531583C61.6414 0.591415 61.5712 0.678861 61.5213 0.793922C61.4714 0.908216 61.4465 1.04706 61.4465 1.21044C61.4465 1.37843 61.4714 1.51958 61.5213 1.63387C61.5719 1.74816 61.6425 1.83446 61.733 1.89276C61.8235 1.95105 61.9282 1.9802 62.0471 1.9802C62.1139 1.9802 62.1756 1.97138 62.2324 1.95374C62.2899 1.9361 62.3409 1.9104 62.3854 1.87665C62.4299 1.84213 62.4667 1.80032 62.4959 1.75123C62.5258 1.70214 62.5465 1.64614 62.558 1.58324L63.062 1.58554C63.0489 1.6937 63.0163 1.79802 62.9642 1.89851C62.9128 1.99823 62.8434 2.08759 62.7559 2.1666C62.6692 2.24484 62.5657 2.30698 62.4452 2.353C62.3256 2.39826 62.1902 2.42089 62.0391 2.42089C61.8289 2.42089 61.641 2.37333 61.4753 2.27821C61.3104 2.18309 61.18 2.0454 61.0841 1.86514C60.989 1.68488 60.9414 1.46665 60.9414 1.21044C60.9414 0.953474 60.9897 0.734858 61.0864 0.554595C61.183 0.374332 61.3142 0.237026 61.4799 0.142676C61.6456 0.0475587 61.832 0 62.0391 0C62.1756 0 62.3022 0.0191769 62.4188 0.0575306C62.5361 0.0958844 62.6401 0.151881 62.7306 0.22552C62.8211 0.298392 62.8948 0.387756 62.9515 0.493613C63.009 0.599469 63.0459 0.720667 63.062 0.857206Z"/>
<path d="M63.3836 2.38867V0.0322172H63.8818V1.9779H64.892V2.38867H63.3836Z"/>
<path d="M65.6846 0.0322172V2.38867H65.1863V0.0322172H65.6846Z"/>
<path d="M68.0298 0.0322172V2.38867H67.5995L66.5743 0.905532H66.557V2.38867H66.0588V0.0322172H66.496L67.5132 1.51421H67.5339V0.0322172H68.0298Z"/>
<path d="M68.904 0.0322172V2.38867H68.4058V0.0322172H68.904Z"/>
<path d="M71.3574 0.857206H70.8535C70.8442 0.792005 70.8255 0.734091 70.7971 0.683464C70.7687 0.63207 70.7323 0.588346 70.6878 0.552294C70.6433 0.516241 70.5919 0.488627 70.5336 0.46945C70.4761 0.450273 70.4135 0.440685 70.346 0.440685C70.2241 0.440685 70.1178 0.470984 70.0273 0.531583C69.9368 0.591415 69.8666 0.678861 69.8168 0.793922C69.7669 0.908216 69.742 1.04706 69.742 1.21044C69.742 1.37843 69.7669 1.51958 69.8168 1.63387C69.8674 1.74816 69.938 1.83446 70.0285 1.89276C70.119 1.95105 70.2237 1.9802 70.3426 1.9802C70.4093 1.9802 70.4711 1.97138 70.5278 1.95374C70.5854 1.9361 70.6364 1.9104 70.6809 1.87665C70.7254 1.84213 70.7622 1.80032 70.7913 1.75123C70.8212 1.70214 70.8419 1.64614 70.8535 1.58324L71.3574 1.58554C71.3444 1.6937 71.3118 1.79802 71.2596 1.89851C71.2082 1.99823 71.1388 2.08759 71.0514 2.1666C70.9647 2.24484 70.8611 2.30698 70.7407 2.353C70.621 2.39826 70.4856 2.42089 70.3345 2.42089C70.1244 2.42089 69.9364 2.37333 69.7707 2.27821C69.6058 2.18309 69.4754 2.0454 69.3795 1.86514C69.2844 1.68488 69.2368 1.46665 69.2368 1.21044C69.2368 0.953474 69.2852 0.734858 69.3818 0.554595C69.4785 0.374332 69.6096 0.237026 69.7753 0.142676C69.941 0.0475587 70.1274 0 70.3345 0C70.4711 0 70.5976 0.0191769 70.7142 0.0575306C70.8316 0.0958844 70.9355 0.151881 71.026 0.22552C71.1166 0.298392 71.1902 0.387756 71.247 0.493613C71.3045 0.599469 71.3413 0.720667 71.3574 0.857206Z"/>
</mask>
<path d="M2.20687 1.21044C2.20687 1.46741 2.15816 1.68603 2.06074 1.86629C1.96409 2.04656 1.83215 2.18425 1.66493 2.27936C1.49848 2.37371 1.31131 2.42089 1.10343 2.42089C0.894023 2.42089 0.70609 2.37333 0.539635 2.27821C0.373181 2.18309 0.241628 2.0454 0.144977 1.86514C0.0483256 1.68488 0 1.46665 0 1.21044C0 0.953474 0.0483256 0.734858 0.144977 0.554595C0.241628 0.374332 0.373181 0.237026 0.539635 0.142676C0.70609 0.0475587 0.894023 0 1.10343 0C1.31131 0 1.49848 0.0475587 1.66493 0.142676C1.83215 0.237026 1.96409 0.374332 2.06074 0.554595C2.15816 0.734858 2.20687 0.953474 2.20687 1.21044ZM1.70175 1.21044C1.70175 1.04399 1.67682 0.903614 1.62696 0.78932C1.57787 0.675026 1.50845 0.588346 1.4187 0.529282C1.32895 0.470217 1.22386 0.440685 1.10343 0.440685C0.983003 0.440685 0.877914 0.470217 0.788167 0.529282C0.698419 0.588346 0.628616 0.675026 0.578756 0.78932C0.529663 0.903614 0.505117 1.04399 0.505117 1.21044C0.505117 1.3769 0.529663 1.51727 0.578756 1.63157C0.628616 1.74586 0.698419 1.83254 0.788167 1.89161C0.877914 1.95067 0.983003 1.9802 1.10343 1.9802C1.22386 1.9802 1.32895 1.95067 1.4187 1.89161C1.50845 1.83254 1.57787 1.74586 1.62696 1.63157C1.67682 1.51727 1.70175 1.3769 1.70175 1.21044Z" fill="#501F68"/>
<path d="M3.9958 0.0322172H4.49402V1.56253C4.49402 1.73436 4.45298 1.8847 4.3709 2.01357C4.28959 2.14244 4.17568 2.24293 4.02917 2.31503C3.88266 2.38637 3.71199 2.42204 3.51715 2.42204C3.32155 2.42204 3.15049 2.38637 3.00398 2.31503C2.85747 2.24293 2.74356 2.14244 2.66225 2.01357C2.58094 1.8847 2.54028 1.73436 2.54028 1.56253V0.0322172H3.0385V1.51996C3.0385 1.60971 3.05806 1.68948 3.09718 1.75929C3.13707 1.82909 3.19306 1.88394 3.26517 1.92382C3.33727 1.96371 3.42127 1.98366 3.51715 1.98366C3.6138 1.98366 3.6978 1.96371 3.76913 1.92382C3.84124 1.88394 3.89685 1.82909 3.93597 1.75929C3.97586 1.68948 3.9958 1.60971 3.9958 1.51996V0.0322172Z" fill="#501F68"/>
<path d="M4.77853 0.442986V0.0322172H6.71386V0.442986H5.99242V2.38867H5.49996V0.442986H4.77853Z" fill="#501F68"/>
<path d="M6.99693 2.38867V0.0322172H7.92663C8.10535 0.0322172 8.25762 0.066352 8.38342 0.134622C8.50922 0.202124 8.6051 0.296091 8.67107 0.416522C8.7378 0.536185 8.77117 0.674259 8.77117 0.830742C8.77117 0.987225 8.73742 1.1253 8.66992 1.24496C8.60242 1.36463 8.50461 1.45783 8.37651 1.52456C8.24918 1.5913 8.095 1.62466 7.91397 1.62466H7.32141V1.2254H7.83343C7.92931 1.2254 8.00832 1.20891 8.07045 1.17593C8.13335 1.14217 8.18014 1.09577 8.21083 1.0367C8.24228 0.97687 8.258 0.908216 8.258 0.830742C8.258 0.7525 8.24228 0.684231 8.21083 0.625933C8.18014 0.566868 8.13335 0.521227 8.07045 0.48901C8.00755 0.456026 7.92778 0.439534 7.83113 0.439534H7.49515V2.38867H6.99693Z" fill="#501F68"/>
<path d="M9.19319 2.38867H8.6593L9.47278 0.0322172H10.1148L10.9272 2.38867H10.3933L9.80301 0.570704H9.7846L9.19319 2.38867ZM9.15982 1.46243H10.4209V1.85133H9.15982V1.46243Z" fill="#501F68"/>
<path d="M10.7974 0.442986V0.0322172H12.7328V0.442986H12.0113V2.38867H11.5189V0.442986H10.7974Z" fill="#501F68"/>
<path d="M13.5141 0.0322172V2.38867H13.0159V0.0322172H13.5141Z" fill="#501F68"/>
<path d="M13.8883 2.38867V0.0322172H15.4762V0.442986H14.3865V1.00448H15.3945V1.41525H14.3865V1.9779H15.4808V2.38867H13.8883Z" fill="#501F68"/>
<path d="M17.8076 0.0322172V2.38867H17.3773L16.3521 0.905532H16.3348V2.38867H15.8366V0.0322172H16.2739L17.291 1.51421H17.3117V0.0322172H17.8076Z" fill="#501F68"/>
<path d="M18.0939 0.442986V0.0322172H20.0292V0.442986H19.3077V2.38867H18.8153V0.442986H18.0939Z" fill="#501F68"/>
<path d="M22.3049 0.709928C22.2956 0.617112 22.2561 0.545007 22.1863 0.493613C22.1165 0.442219 22.0218 0.416522 21.9021 0.416522C21.8208 0.416522 21.7522 0.428028 21.6962 0.45104C21.6402 0.473285 21.5972 0.504352 21.5673 0.54424C21.5382 0.584127 21.5236 0.629385 21.5236 0.680012C21.5221 0.722201 21.5309 0.759021 21.5501 0.790471C21.57 0.821921 21.5972 0.849152 21.6317 0.872164C21.6663 0.894409 21.7062 0.91397 21.7514 0.930845C21.7967 0.946954 21.845 0.960761 21.8964 0.972267L22.1081 1.02289C22.2109 1.04591 22.3052 1.07659 22.3911 1.11494C22.4771 1.1533 22.5515 1.20047 22.6144 1.25647C22.6773 1.31246 22.726 1.37843 22.7605 1.45437C22.7958 1.53031 22.8138 1.61738 22.8146 1.71556C22.8138 1.85977 22.777 1.98481 22.7041 2.09066C22.632 2.19575 22.5277 2.27744 22.3911 2.33574C22.2554 2.39327 22.0916 2.42204 21.8998 2.42204C21.7096 2.42204 21.5439 2.39289 21.4028 2.33459C21.2624 2.27629 21.1527 2.19 21.0737 2.0757C20.9955 1.96064 20.9544 1.81835 20.9506 1.64883H21.4327C21.4381 1.72784 21.4607 1.7938 21.5006 1.84673C21.5412 1.89889 21.5953 1.9384 21.6628 1.96525C21.7311 1.99133 21.8082 2.00437 21.8941 2.00437C21.9785 2.00437 22.0517 1.99209 22.1139 1.96755C22.1768 1.943 22.2255 1.90887 22.26 1.86514C22.2945 1.82142 22.3118 1.77118 22.3118 1.71441C22.3118 1.66148 22.296 1.61699 22.2646 1.58094C22.2339 1.54489 22.1886 1.51421 22.1288 1.48889C22.0697 1.46358 21.9973 1.44057 21.9113 1.41986L21.6548 1.35542C21.4561 1.3071 21.2992 1.23154 21.1842 1.12875C21.0691 1.02596 21.012 0.887505 21.0127 0.713379C21.012 0.570704 21.0499 0.446054 21.1266 0.339431C21.2041 0.232807 21.3103 0.14958 21.4453 0.0897478C21.5804 0.0299159 21.7338 0 21.9056 0C22.0805 0 22.2331 0.0299159 22.3635 0.0897478C22.4947 0.14958 22.5967 0.232807 22.6696 0.339431C22.7425 0.446054 22.7801 0.569553 22.7824 0.709928H22.3049Z" fill="#501F68"/>
<path d="M24.5696 0.0322172H25.0678V1.56253C25.0678 1.73436 25.0267 1.8847 24.9447 2.01357C24.8634 2.14244 24.7494 2.24293 24.6029 2.31503C24.4564 2.38637 24.2857 2.42204 24.0909 2.42204C23.8953 2.42204 23.7242 2.38637 23.5777 2.31503C23.4312 2.24293 23.3173 2.14244 23.236 2.01357C23.1547 1.8847 23.114 1.73436 23.114 1.56253V0.0322172H23.6123V1.51996C23.6123 1.60971 23.6318 1.68948 23.6709 1.75929C23.7108 1.82909 23.7668 1.88394 23.8389 1.92382C23.911 1.96371 23.995 1.98366 24.0909 1.98366C24.1876 1.98366 24.2716 1.96371 24.3429 1.92382C24.415 1.88394 24.4706 1.82909 24.5097 1.75929C24.5496 1.68948 24.5696 1.60971 24.5696 1.51996V0.0322172Z" fill="#501F68"/>
<path d="M25.442 2.38867V0.0322172H26.3717C26.5497 0.0322172 26.7016 0.0640508 26.8274 0.127718C26.9539 0.190618 27.0502 0.279982 27.1162 0.395811C27.1829 0.510872 27.2163 0.64626 27.2163 0.801977C27.2163 0.95846 27.1825 1.09308 27.115 1.20584C27.0475 1.31783 26.9497 1.40375 26.8216 1.46358C26.6943 1.52341 26.5401 1.55333 26.3591 1.55333H25.7366V1.15291H26.2785C26.3736 1.15291 26.4527 1.13987 26.5156 1.11379C26.5785 1.08771 26.6253 1.04859 26.6559 0.99643C26.6874 0.944269 26.7031 0.879451 26.7031 0.801977C26.7031 0.723735 26.6874 0.657767 26.6559 0.604071C26.6253 0.550376 26.5781 0.509721 26.5144 0.482106C26.4515 0.453725 26.3721 0.439534 26.2762 0.439534H25.9403V2.38867H25.442ZM26.7146 1.3163L27.3003 2.38867H26.7503L26.1773 1.3163H26.7146Z" fill="#501F68"/>
<path d="M29.0953 0.793922C29.0791 0.737926 29.0565 0.68845 29.0274 0.645493C28.9982 0.60177 28.9625 0.564951 28.9204 0.535035C28.8789 0.504352 28.8314 0.480956 28.7777 0.464847C28.7248 0.448739 28.6661 0.440685 28.6016 0.440685C28.4812 0.440685 28.3754 0.4706 28.2841 0.530432C28.1936 0.590264 28.123 0.677327 28.0724 0.791621C28.0217 0.905148 27.9964 1.04399 27.9964 1.20814C27.9964 1.3723 28.0213 1.5119 28.0712 1.62697C28.1211 1.74203 28.1916 1.82986 28.2829 1.89046C28.3742 1.95029 28.482 1.9802 28.6062 1.9802C28.719 1.9802 28.8153 1.96026 28.895 1.92037C28.9756 1.87972 29.037 1.82257 29.0791 1.74893C29.1221 1.67529 29.1436 1.58823 29.1436 1.48774L29.2448 1.5027H28.6373V1.1276H29.6234V1.42446C29.6234 1.63157 29.5797 1.80953 29.4922 1.95834C29.4048 2.10639 29.2843 2.22068 29.1309 2.30122C28.9775 2.381 28.8018 2.42089 28.6039 2.42089C28.383 2.42089 28.189 2.37218 28.0217 2.27476C27.8545 2.17657 27.7241 2.03735 27.6305 1.85709C27.5377 1.67606 27.4913 1.46128 27.4913 1.21275C27.4913 1.02174 27.5189 0.851453 27.5741 0.701873C27.6301 0.551527 27.7084 0.424192 27.8089 0.31987C27.9094 0.215548 28.0263 0.136156 28.1598 0.0816934C28.2933 0.0272311 28.4379 0 28.5936 0C28.7271 0 28.8513 0.0195604 28.9664 0.0586813C29.0814 0.097035 29.1835 0.151497 29.2724 0.222068C29.3622 0.292639 29.4354 0.376634 29.4922 0.474052C29.549 0.570704 29.5854 0.677327 29.6015 0.793922H29.0953Z" fill="#501F68"/>
<path d="M29.962 2.38867V0.0322172H31.5498V0.442986H30.4602V1.00448H31.4681V1.41525H30.4602V1.9779H31.5544V2.38867H29.962Z" fill="#501F68"/>
<path d="M31.9103 2.38867V0.0322172H32.84C33.0179 0.0322172 33.1698 0.0640508 33.2956 0.127718C33.4222 0.190618 33.5184 0.279982 33.5844 0.395811C33.6511 0.510872 33.6845 0.64626 33.6845 0.801977C33.6845 0.95846 33.6508 1.09308 33.5833 1.20584C33.5158 1.31783 33.4179 1.40375 33.2898 1.46358C33.1625 1.52341 33.0083 1.55333 32.8273 1.55333H32.2048V1.15291H32.7468C32.8419 1.15291 32.9209 1.13987 32.9838 1.11379C33.0467 1.08771 33.0935 1.04859 33.1242 0.99643C33.1556 0.944269 33.1713 0.879451 33.1713 0.801977C33.1713 0.723735 33.1556 0.657767 33.1242 0.604071C33.0935 0.550376 33.0463 0.509721 32.9826 0.482106C32.9197 0.453725 32.8403 0.439534 32.7445 0.439534H32.4085V2.38867H31.9103ZM33.1828 1.3163L33.7685 2.38867H33.2185L32.6455 1.3163H33.1828Z" fill="#501F68"/>
<path d="M33.7648 0.0322172H34.3228L34.8602 1.04706H34.8832L35.4205 0.0322172H35.9786L35.1191 1.55563V2.38867H34.6243V1.55563L33.7648 0.0322172Z" fill="#501F68"/>
<path d="M37.6427 2.42319C37.4801 2.42319 37.3397 2.39404 37.2216 2.33574C37.1034 2.27744 37.0125 2.19844 36.9489 2.09872C36.886 1.99823 36.8545 1.88624 36.8545 1.76274C36.8545 1.67069 36.8729 1.589 36.9097 1.51766C36.9466 1.44632 36.998 1.38073 37.0639 1.3209C37.1299 1.2603 37.2066 1.20009 37.294 1.14026L37.7508 0.839947C37.8099 0.80236 37.8532 0.762856 37.8809 0.721434C37.9085 0.679245 37.9223 0.633604 37.9223 0.584511C37.9223 0.537719 37.9035 0.49438 37.8659 0.454492C37.8283 0.414604 37.775 0.395044 37.706 0.395811C37.6599 0.395811 37.6201 0.406166 37.5863 0.426877C37.5526 0.446821 37.5261 0.473285 37.5069 0.506269C37.4885 0.538487 37.4793 0.574539 37.4793 0.614427C37.4793 0.66352 37.4931 0.713379 37.5207 0.764006C37.5483 0.814633 37.5852 0.868329 37.6312 0.925092C37.6772 0.981089 37.7274 1.04169 37.7819 1.10689L38.8991 2.38867H38.3883L37.4563 1.35082C37.3949 1.28101 37.3336 1.20814 37.2722 1.1322C37.2116 1.05549 37.161 0.974185 37.1203 0.888273C37.0797 0.801593 37.0593 0.707626 37.0593 0.606373C37.0593 0.492078 37.0858 0.38929 37.1387 0.298009C37.1924 0.206727 37.2676 0.134622 37.3642 0.0816934C37.4609 0.0279982 37.5736 0.00115065 37.7025 0.00115065C37.8283 0.00115065 37.9369 0.0268477 38.0281 0.0782417C38.1202 0.128869 38.1908 0.196371 38.2399 0.280749C38.2897 0.364361 38.3146 0.456409 38.3146 0.556896C38.3146 0.668122 38.287 0.768992 38.2318 0.859507C38.1773 0.949255 38.1006 1.0298 38.0017 1.10114L37.5207 1.44747C37.4555 1.49503 37.4072 1.54374 37.3757 1.5936C37.3451 1.64269 37.3297 1.68987 37.3297 1.73512C37.3297 1.79112 37.3435 1.84136 37.3711 1.88585C37.3988 1.93034 37.4379 1.96563 37.4885 1.99171C37.5391 2.01702 37.5986 2.02968 37.6668 2.02968C37.7497 2.02968 37.8314 2.01089 37.9119 1.9733C37.9932 1.93495 38.0669 1.88087 38.1328 1.81106C38.1996 1.74049 38.2529 1.65688 38.2928 1.56023C38.3327 1.46358 38.3526 1.35657 38.3526 1.23921H38.7588C38.7588 1.38342 38.743 1.51344 38.7116 1.62927C38.6801 1.74433 38.6364 1.84481 38.5804 1.93073C38.5244 2.01587 38.4604 2.08568 38.3883 2.14014C38.3653 2.15471 38.343 2.16852 38.3215 2.18156C38.3001 2.1946 38.2778 2.20841 38.2548 2.22298C38.1674 2.29355 38.0696 2.34456 37.9614 2.37601C37.854 2.40746 37.7478 2.42319 37.6427 2.42319Z" fill="#501F68"/>
<path d="M39.7912 2.38867V0.0322172H41.3791V0.442986H40.2894V1.00448H41.2974V1.41525H40.2894V1.9779H41.3837V2.38867H39.7912Z" fill="#501F68"/>
<path d="M43.7105 0.0322172V2.38867H43.2802L42.255 0.905532H42.2377V2.38867H41.7395V0.0322172H42.1767L43.1939 1.51421H43.2146V0.0322172H43.7105Z" fill="#501F68"/>
<path d="M44.9218 2.38867H44.0865V0.0322172H44.9287C45.1658 0.0322172 45.3698 0.0793923 45.5409 0.173743C45.7119 0.267326 45.8435 0.401947 45.9355 0.577607C46.0283 0.753267 46.0747 0.963446 46.0747 1.20814C46.0747 1.45361 46.0283 1.66455 45.9355 1.84098C45.8435 2.01741 45.7112 2.1528 45.5386 2.24715C45.3667 2.3415 45.1612 2.38867 44.9218 2.38867ZM44.5847 1.96179H44.9011C45.0484 1.96179 45.1723 1.93571 45.2728 1.88355C45.374 1.83062 45.45 1.74893 45.5006 1.63847C45.552 1.52725 45.5777 1.3838 45.5777 1.20814C45.5777 1.03402 45.552 0.891724 45.5006 0.781266C45.45 0.670807 45.3744 0.589497 45.2739 0.537336C45.1734 0.485175 45.0496 0.459094 44.9023 0.459094H44.5847V1.96179Z" fill="#501F68"/>
<path d="M48.5736 1.21044C48.5736 1.46741 48.5249 1.68603 48.4275 1.86629C48.3308 2.04656 48.1989 2.18425 48.0317 2.27936C47.8652 2.37371 47.678 2.42089 47.4702 2.42089C47.2608 2.42089 47.0728 2.37333 46.9064 2.27821C46.7399 2.18309 46.6084 2.0454 46.5117 1.86514C46.4151 1.68488 46.3667 1.46665 46.3667 1.21044C46.3667 0.953474 46.4151 0.734858 46.5117 0.554595C46.6084 0.374332 46.7399 0.237026 46.9064 0.142676C47.0728 0.0475587 47.2608 0 47.4702 0C47.678 0 47.8652 0.0475587 48.0317 0.142676C48.1989 0.237026 48.3308 0.374332 48.4275 0.554595C48.5249 0.734858 48.5736 0.953474 48.5736 1.21044ZM48.0685 1.21044C48.0685 1.04399 48.0436 0.903614 47.9937 0.78932C47.9446 0.675026 47.8752 0.588346 47.7854 0.529282C47.6957 0.470217 47.5906 0.440685 47.4702 0.440685C47.3497 0.440685 47.2446 0.470217 47.1549 0.529282C47.0652 0.588346 46.9954 0.675026 46.9455 0.78932C46.8964 0.903614 46.8719 1.04399 46.8719 1.21044C46.8719 1.3769 46.8964 1.51727 46.9455 1.63157C46.9954 1.74586 47.0652 1.83254 47.1549 1.89161C47.2446 1.95067 47.3497 1.9802 47.4702 1.9802C47.5906 1.9802 47.6957 1.95067 47.7854 1.89161C47.8752 1.83254 47.9446 1.74586 47.9937 1.63157C48.0436 1.51727 48.0685 1.3769 48.0685 1.21044Z" fill="#501F68"/>
<path d="M50.1853 0.709928C50.1761 0.617112 50.1366 0.545007 50.0668 0.493613C49.997 0.442219 49.9023 0.416522 49.7826 0.416522C49.7013 0.416522 49.6327 0.428028 49.5767 0.45104C49.5207 0.473285 49.4777 0.504352 49.4478 0.54424C49.4187 0.584127 49.4041 0.629385 49.4041 0.680012C49.4026 0.722201 49.4114 0.759021 49.4305 0.790471C49.4505 0.821921 49.4777 0.849152 49.5122 0.872164C49.5468 0.894409 49.5866 0.91397 49.6319 0.930845C49.6772 0.946954 49.7255 0.960761 49.7769 0.972267L49.9886 1.02289C50.0914 1.04591 50.1857 1.07659 50.2716 1.11494C50.3576 1.1533 50.432 1.20047 50.4949 1.25647C50.5578 1.31246 50.6065 1.37843 50.641 1.45437C50.6763 1.53031 50.6943 1.61738 50.6951 1.71556C50.6943 1.85977 50.6575 1.98481 50.5846 2.09066C50.5125 2.19575 50.4082 2.27744 50.2716 2.33574C50.1359 2.39327 49.9721 2.42204 49.7803 2.42204C49.5901 2.42204 49.4244 2.39289 49.2833 2.33459C49.1429 2.27629 49.0332 2.19 48.9542 2.0757C48.8759 1.96064 48.8349 1.81835 48.8311 1.64883H49.3132C49.3186 1.72784 49.3412 1.7938 49.3811 1.84673C49.4217 1.89889 49.4758 1.9384 49.5433 1.96525C49.6116 1.99133 49.6887 2.00437 49.7746 2.00437C49.859 2.00437 49.9322 1.99209 49.9943 1.96755C50.0572 1.943 50.106 1.90887 50.1405 1.86514C50.175 1.82142 50.1923 1.77118 50.1923 1.71441C50.1923 1.66148 50.1765 1.61699 50.1451 1.58094C50.1144 1.54489 50.0691 1.51421 50.0093 1.48889C49.9502 1.46358 49.8778 1.44057 49.7918 1.41986L49.5353 1.35542C49.3366 1.3071 49.1797 1.23154 49.0647 1.12875C48.9496 1.02596 48.8924 0.887505 48.8932 0.713379C48.8924 0.570704 48.9304 0.446054 49.0071 0.339431C49.0846 0.232807 49.1908 0.14958 49.3258 0.0897478C49.4608 0.0299159 49.6143 0 49.7861 0C49.961 0 50.1136 0.0299159 50.244 0.0897478C50.3752 0.14958 50.4772 0.232807 50.5501 0.339431C50.623 0.446054 50.6605 0.569553 50.6628 0.709928H50.1853Z" fill="#501F68"/>
<path d="M53.0737 0.857206H52.5697C52.5605 0.792005 52.5417 0.734091 52.5133 0.683464C52.485 0.63207 52.4485 0.588346 52.404 0.552294C52.3595 0.516241 52.3081 0.488627 52.2498 0.46945C52.1923 0.450273 52.1298 0.440685 52.0623 0.440685C51.9403 0.440685 51.8341 0.470984 51.7436 0.531583C51.6531 0.591415 51.5829 0.678861 51.533 0.793922C51.4832 0.908216 51.4582 1.04706 51.4582 1.21044C51.4582 1.37843 51.4832 1.51958 51.533 1.63387C51.5836 1.74816 51.6542 1.83446 51.7447 1.89276C51.8353 1.95105 51.94 1.9802 52.0588 1.9802C52.1256 1.9802 52.1873 1.97138 52.2441 1.95374C52.3016 1.9361 52.3526 1.9104 52.3971 1.87665C52.4416 1.84213 52.4784 1.80032 52.5076 1.75123C52.5375 1.70214 52.5582 1.64614 52.5697 1.58324L53.0737 1.58554C53.0606 1.6937 53.028 1.79802 52.9759 1.89851C52.9245 1.99823 52.8551 2.08759 52.7676 2.1666C52.6809 2.24484 52.5774 2.30698 52.457 2.353C52.3373 2.39826 52.2019 2.42089 52.0508 2.42089C51.8406 2.42089 51.6527 2.37333 51.487 2.27821C51.3221 2.18309 51.1917 2.0454 51.0958 1.86514C51.0007 1.68488 50.9531 1.46665 50.9531 1.21044C50.9531 0.953474 51.0014 0.734858 51.0981 0.554595C51.1947 0.374332 51.3259 0.237026 51.4916 0.142676C51.6573 0.0475587 51.8437 0 52.0508 0C52.1873 0 52.3139 0.0191769 52.4305 0.0575306C52.5479 0.0958844 52.6518 0.151881 52.7423 0.22552C52.8328 0.298392 52.9065 0.387756 52.9632 0.493613C53.0208 0.599469 53.0576 0.720667 53.0737 0.857206Z" fill="#501F68"/>
<path d="M55.5608 1.21044C55.5608 1.46741 55.512 1.68603 55.4146 1.86629C55.318 2.04656 55.186 2.18425 55.0188 2.27936C54.8524 2.37371 54.6652 2.42089 54.4573 2.42089C54.2479 2.42089 54.06 2.37333 53.8935 2.27821C53.7271 2.18309 53.5955 2.0454 53.4989 1.86514C53.4022 1.68488 53.3539 1.46665 53.3539 1.21044C53.3539 0.953474 53.4022 0.734858 53.4989 0.554595C53.5955 0.374332 53.7271 0.237026 53.8935 0.142676C54.06 0.0475587 54.2479 0 54.4573 0C54.6652 0 54.8524 0.0475587 55.0188 0.142676C55.186 0.237026 55.318 0.374332 55.4146 0.554595C55.512 0.734858 55.5608 0.953474 55.5608 1.21044ZM55.0556 1.21044C55.0556 1.04399 55.0307 0.903614 54.9809 0.78932C54.9318 0.675026 54.8623 0.588346 54.7726 0.529282C54.6828 0.470217 54.5778 0.440685 54.4573 0.440685C54.3369 0.440685 54.2318 0.470217 54.1421 0.529282C54.0523 0.588346 53.9825 0.675026 53.9326 0.78932C53.8836 0.903614 53.859 1.04399 53.859 1.21044C53.859 1.3769 53.8836 1.51727 53.9326 1.63157C53.9825 1.74586 54.0523 1.83254 54.1421 1.89161C54.2318 1.95067 54.3369 1.9802 54.4573 1.9802C54.5778 1.9802 54.6828 1.95067 54.7726 1.89161C54.8623 1.83254 54.9318 1.74586 54.9809 1.63157C55.0307 1.51727 55.0556 1.3769 55.0556 1.21044Z" fill="#501F68"/>
<path d="M55.8942 2.38867V0.0322172H56.8239C57.0026 0.0322172 57.1549 0.066352 57.2807 0.134622C57.4065 0.202124 57.5023 0.296091 57.5683 0.416522C57.635 0.536185 57.6684 0.674259 57.6684 0.830742C57.6684 0.987225 57.6347 1.1253 57.5672 1.24496C57.4997 1.36463 57.4019 1.45783 57.2738 1.52456C57.1464 1.5913 56.9922 1.62466 56.8112 1.62466H56.2186V1.2254H56.7307C56.8266 1.2254 56.9056 1.20891 56.9677 1.17593C57.0306 1.14217 57.0774 1.09577 57.1081 1.0367C57.1395 0.97687 57.1552 0.908216 57.1552 0.830742C57.1552 0.7525 57.1395 0.684231 57.1081 0.625933C57.0774 0.566868 57.0306 0.521227 56.9677 0.48901C56.9048 0.456026 56.825 0.439534 56.7284 0.439534H56.3924V2.38867H55.8942Z" fill="#501F68"/>
<path d="M57.8183 0.0322172H58.3763L58.9137 1.04706H58.9367L59.474 0.0322172H60.0321L59.1726 1.55563V2.38867H58.6778V1.55563L57.8183 0.0322172Z" fill="#501F68"/>
<path d="M63.062 0.857206H62.558C62.5488 0.792005 62.53 0.734091 62.5016 0.683464C62.4732 0.63207 62.4368 0.588346 62.3923 0.552294C62.3478 0.516241 62.2964 0.488627 62.2381 0.46945C62.1806 0.450273 62.1181 0.440685 62.0506 0.440685C61.9286 0.440685 61.8224 0.470984 61.7319 0.531583C61.6414 0.591415 61.5712 0.678861 61.5213 0.793922C61.4714 0.908216 61.4465 1.04706 61.4465 1.21044C61.4465 1.37843 61.4714 1.51958 61.5213 1.63387C61.5719 1.74816 61.6425 1.83446 61.733 1.89276C61.8235 1.95105 61.9282 1.9802 62.0471 1.9802C62.1139 1.9802 62.1756 1.97138 62.2324 1.95374C62.2899 1.9361 62.3409 1.9104 62.3854 1.87665C62.4299 1.84213 62.4667 1.80032 62.4959 1.75123C62.5258 1.70214 62.5465 1.64614 62.558 1.58324L63.062 1.58554C63.0489 1.6937 63.0163 1.79802 62.9642 1.89851C62.9128 1.99823 62.8434 2.08759 62.7559 2.1666C62.6692 2.24484 62.5657 2.30698 62.4452 2.353C62.3256 2.39826 62.1902 2.42089 62.0391 2.42089C61.8289 2.42089 61.641 2.37333 61.4753 2.27821C61.3104 2.18309 61.18 2.0454 61.0841 1.86514C60.989 1.68488 60.9414 1.46665 60.9414 1.21044C60.9414 0.953474 60.9897 0.734858 61.0864 0.554595C61.183 0.374332 61.3142 0.237026 61.4799 0.142676C61.6456 0.0475587 61.832 0 62.0391 0C62.1756 0 62.3022 0.0191769 62.4188 0.0575306C62.5361 0.0958844 62.6401 0.151881 62.7306 0.22552C62.8211 0.298392 62.8948 0.387756 62.9515 0.493613C63.009 0.599469 63.0459 0.720667 63.062 0.857206Z" fill="#501F68"/>
<path d="M63.3836 2.38867V0.0322172H63.8818V1.9779H64.892V2.38867H63.3836Z" fill="#501F68"/>
<path d="M65.6846 0.0322172V2.38867H65.1863V0.0322172H65.6846Z" fill="#501F68"/>
<path d="M68.0298 0.0322172V2.38867H67.5995L66.5743 0.905532H66.557V2.38867H66.0588V0.0322172H66.496L67.5132 1.51421H67.5339V0.0322172H68.0298Z" fill="#501F68"/>
<path d="M68.904 0.0322172V2.38867H68.4058V0.0322172H68.904Z" fill="#501F68"/>
<path d="M71.3574 0.857206H70.8535C70.8442 0.792005 70.8255 0.734091 70.7971 0.683464C70.7687 0.63207 70.7323 0.588346 70.6878 0.552294C70.6433 0.516241 70.5919 0.488627 70.5336 0.46945C70.4761 0.450273 70.4135 0.440685 70.346 0.440685C70.2241 0.440685 70.1178 0.470984 70.0273 0.531583C69.9368 0.591415 69.8666 0.678861 69.8168 0.793922C69.7669 0.908216 69.742 1.04706 69.742 1.21044C69.742 1.37843 69.7669 1.51958 69.8168 1.63387C69.8674 1.74816 69.938 1.83446 70.0285 1.89276C70.119 1.95105 70.2237 1.9802 70.3426 1.9802C70.4093 1.9802 70.4711 1.97138 70.5278 1.95374C70.5854 1.9361 70.6364 1.9104 70.6809 1.87665C70.7254 1.84213 70.7622 1.80032 70.7913 1.75123C70.8212 1.70214 70.8419 1.64614 70.8535 1.58324L71.3574 1.58554C71.3444 1.6937 71.3118 1.79802 71.2596 1.89851C71.2082 1.99823 71.1388 2.08759 71.0514 2.1666C70.9647 2.24484 70.8611 2.30698 70.7407 2.353C70.621 2.39826 70.4856 2.42089 70.3345 2.42089C70.1244 2.42089 69.9364 2.37333 69.7707 2.27821C69.6058 2.18309 69.4754 2.0454 69.3795 1.86514C69.2844 1.68488 69.2368 1.46665 69.2368 1.21044C69.2368 0.953474 69.2852 0.734858 69.3818 0.554595C69.4785 0.374332 69.6096 0.237026 69.7753 0.142676C69.941 0.0475587 70.1274 0 70.3345 0C70.4711 0 70.5976 0.0191769 70.7142 0.0575306C70.8316 0.0958844 70.9355 0.151881 71.026 0.22552C71.1166 0.298392 71.1902 0.387756 71.247 0.493613C71.3045 0.599469 71.3413 0.720667 71.3574 0.857206Z" fill="#501F68"/>
<path d="M2.20687 1.21044C2.20687 1.46741 2.15816 1.68603 2.06074 1.86629C1.96409 2.04656 1.83215 2.18425 1.66493 2.27936C1.49848 2.37371 1.31131 2.42089 1.10343 2.42089C0.894023 2.42089 0.70609 2.37333 0.539635 2.27821C0.373181 2.18309 0.241628 2.0454 0.144977 1.86514C0.0483256 1.68488 0 1.46665 0 1.21044C0 0.953474 0.0483256 0.734858 0.144977 0.554595C0.241628 0.374332 0.373181 0.237026 0.539635 0.142676C0.70609 0.0475587 0.894023 0 1.10343 0C1.31131 0 1.49848 0.0475587 1.66493 0.142676C1.83215 0.237026 1.96409 0.374332 2.06074 0.554595C2.15816 0.734858 2.20687 0.953474 2.20687 1.21044ZM1.70175 1.21044C1.70175 1.04399 1.67682 0.903614 1.62696 0.78932C1.57787 0.675026 1.50845 0.588346 1.4187 0.529282C1.32895 0.470217 1.22386 0.440685 1.10343 0.440685C0.983003 0.440685 0.877914 0.470217 0.788167 0.529282C0.698419 0.588346 0.628616 0.675026 0.578756 0.78932C0.529663 0.903614 0.505117 1.04399 0.505117 1.21044C0.505117 1.3769 0.529663 1.51727 0.578756 1.63157C0.628616 1.74586 0.698419 1.83254 0.788167 1.89161C0.877914 1.95067 0.983003 1.9802 1.10343 1.9802C1.22386 1.9802 1.32895 1.95067 1.4187 1.89161C1.50845 1.83254 1.57787 1.74586 1.62696 1.63157C1.67682 1.51727 1.70175 1.3769 1.70175 1.21044Z" stroke="#501F68" stroke-width="8" mask="url(#path-1-inside-1_0_39)"/>
<path d="M3.9958 0.0322172H4.49402V1.56253C4.49402 1.73436 4.45298 1.8847 4.3709 2.01357C4.28959 2.14244 4.17568 2.24293 4.02917 2.31503C3.88266 2.38637 3.71199 2.42204 3.51715 2.42204C3.32155 2.42204 3.15049 2.38637 3.00398 2.31503C2.85747 2.24293 2.74356 2.14244 2.66225 2.01357C2.58094 1.8847 2.54028 1.73436 2.54028 1.56253V0.0322172H3.0385V1.51996C3.0385 1.60971 3.05806 1.68948 3.09718 1.75929C3.13707 1.82909 3.19306 1.88394 3.26517 1.92382C3.33727 1.96371 3.42127 1.98366 3.51715 1.98366C3.6138 1.98366 3.6978 1.96371 3.76913 1.92382C3.84124 1.88394 3.89685 1.82909 3.93597 1.75929C3.97586 1.68948 3.9958 1.60971 3.9958 1.51996V0.0322172Z" stroke="#501F68" stroke-width="8" mask="url(#path-1-inside-1_0_39)"/>
<path d="M4.77853 0.442986V0.0322172H6.71386V0.442986H5.99242V2.38867H5.49996V0.442986H4.77853Z" stroke="#501F68" stroke-width="8" mask="url(#path-1-inside-1_0_39)"/>
<path d="M6.99693 2.38867V0.0322172H7.92663C8.10535 0.0322172 8.25762 0.066352 8.38342 0.134622C8.50922 0.202124 8.6051 0.296091 8.67107 0.416522C8.7378 0.536185 8.77117 0.674259 8.77117 0.830742C8.77117 0.987225 8.73742 1.1253 8.66992 1.24496C8.60242 1.36463 8.50461 1.45783 8.37651 1.52456C8.24918 1.5913 8.095 1.62466 7.91397 1.62466H7.32141V1.2254H7.83343C7.92931 1.2254 8.00832 1.20891 8.07045 1.17593C8.13335 1.14217 8.18014 1.09577 8.21083 1.0367C8.24228 0.97687 8.258 0.908216 8.258 0.830742C8.258 0.7525 8.24228 0.684231 8.21083 0.625933C8.18014 0.566868 8.13335 0.521227 8.07045 0.48901C8.00755 0.456026 7.92778 0.439534 7.83113 0.439534H7.49515V2.38867H6.99693Z" stroke="#501F68" stroke-width="8" mask="url(#path-1-inside-1_0_39)"/>
<path d="M9.19319 2.38867H8.6593L9.47278 0.0322172H10.1148L10.9272 2.38867H10.3933L9.80301 0.570704H9.7846L9.19319 2.38867ZM9.15982 1.46243H10.4209V1.85133H9.15982V1.46243Z" stroke="#501F68" stroke-width="8" mask="url(#path-1-inside-1_0_39)"/>
<path d="M10.7974 0.442986V0.0322172H12.7328V0.442986H12.0113V2.38867H11.5189V0.442986H10.7974Z" stroke="#501F68" stroke-width="8" mask="url(#path-1-inside-1_0_39)"/>
<path d="M13.5141 0.0322172V2.38867H13.0159V0.0322172H13.5141Z" stroke="#501F68" stroke-width="8" mask="url(#path-1-inside-1_0_39)"/>
<path d="M13.8883 2.38867V0.0322172H15.4762V0.442986H14.3865V1.00448H15.3945V1.41525H14.3865V1.9779H15.4808V2.38867H13.8883Z" stroke="#501F68" stroke-width="8" mask="url(#path-1-inside-1_0_39)"/>
<path d="M17.8076 0.0322172V2.38867H17.3773L16.3521 0.905532H16.3348V2.38867H15.8366V0.0322172H16.2739L17.291 1.51421H17.3117V0.0322172H17.8076Z" stroke="#501F68" stroke-width="8" mask="url(#path-1-inside-1_0_39)"/>
<path d="M18.0939 0.442986V0.0322172H20.0292V0.442986H19.3077V2.38867H18.8153V0.442986H18.0939Z" stroke="#501F68" stroke-width="8" mask="url(#path-1-inside-1_0_39)"/>
<path d="M22.3049 0.709928C22.2956 0.617112 22.2561 0.545007 22.1863 0.493613C22.1165 0.442219 22.0218 0.416522 21.9021 0.416522C21.8208 0.416522 21.7522 0.428028 21.6962 0.45104C21.6402 0.473285 21.5972 0.504352 21.5673 0.54424C21.5382 0.584127 21.5236 0.629385 21.5236 0.680012C21.5221 0.722201 21.5309 0.759021 21.5501 0.790471C21.57 0.821921 21.5972 0.849152 21.6317 0.872164C21.6663 0.894409 21.7062 0.91397 21.7514 0.930845C21.7967 0.946954 21.845 0.960761 21.8964 0.972267L22.1081 1.02289C22.2109 1.04591 22.3052 1.07659 22.3911 1.11494C22.4771 1.1533 22.5515 1.20047 22.6144 1.25647C22.6773 1.31246 22.726 1.37843 22.7605 1.45437C22.7958 1.53031 22.8138 1.61738 22.8146 1.71556C22.8138 1.85977 22.777 1.98481 22.7041 2.09066C22.632 2.19575 22.5277 2.27744 22.3911 2.33574C22.2554 2.39327 22.0916 2.42204 21.8998 2.42204C21.7096 2.42204 21.5439 2.39289 21.4028 2.33459C21.2624 2.27629 21.1527 2.19 21.0737 2.0757C20.9955 1.96064 20.9544 1.81835 20.9506 1.64883H21.4327C21.4381 1.72784 21.4607 1.7938 21.5006 1.84673C21.5412 1.89889 21.5953 1.9384 21.6628 1.96525C21.7311 1.99133 21.8082 2.00437 21.8941 2.00437C21.9785 2.00437 22.0517 1.99209 22.1139 1.96755C22.1768 1.943 22.2255 1.90887 22.26 1.86514C22.2945 1.82142 22.3118 1.77118 22.3118 1.71441C22.3118 1.66148 22.296 1.61699 22.2646 1.58094C22.2339 1.54489 22.1886 1.51421 22.1288 1.48889C22.0697 1.46358 21.9973 1.44057 21.9113 1.41986L21.6548 1.35542C21.4561 1.3071 21.2992 1.23154 21.1842 1.12875C21.0691 1.02596 21.012 0.887505 21.0127 0.713379C21.012 0.570704 21.0499 0.446054 21.1266 0.339431C21.2041 0.232807 21.3103 0.14958 21.4453 0.0897478C21.5804 0.0299159 21.7338 0 21.9056 0C22.0805 0 22.2331 0.0299159 22.3635 0.0897478C22.4947 0.14958 22.5967 0.232807 22.6696 0.339431C22.7425 0.446054 22.7801 0.569553 22.7824 0.709928H22.3049Z" stroke="#501F68" stroke-width="8" mask="url(#path-1-inside-1_0_39)"/>
<path d="M24.5696 0.0322172H25.0678V1.56253C25.0678 1.73436 25.0267 1.8847 24.9447 2.01357C24.8634 2.14244 24.7494 2.24293 24.6029 2.31503C24.4564 2.38637 24.2857 2.42204 24.0909 2.42204C23.8953 2.42204 23.7242 2.38637 23.5777 2.31503C23.4312 2.24293 23.3173 2.14244 23.236 2.01357C23.1547 1.8847 23.114 1.73436 23.114 1.56253V0.0322172H23.6123V1.51996C23.6123 1.60971 23.6318 1.68948 23.6709 1.75929C23.7108 1.82909 23.7668 1.88394 23.8389 1.92382C23.911 1.96371 23.995 1.98366 24.0909 1.98366C24.1876 1.98366 24.2716 1.96371 24.3429 1.92382C24.415 1.88394 24.4706 1.82909 24.5097 1.75929C24.5496 1.68948 24.5696 1.60971 24.5696 1.51996V0.0322172Z" stroke="#501F68" stroke-width="8" mask="url(#path-1-inside-1_0_39)"/>
<path d="M25.442 2.38867V0.0322172H26.3717C26.5497 0.0322172 26.7016 0.0640508 26.8274 0.127718C26.9539 0.190618 27.0502 0.279982 27.1162 0.395811C27.1829 0.510872 27.2163 0.64626 27.2163 0.801977C27.2163 0.95846 27.1825 1.09308 27.115 1.20584C27.0475 1.31783 26.9497 1.40375 26.8216 1.46358C26.6943 1.52341 26.5401 1.55333 26.3591 1.55333H25.7366V1.15291H26.2785C26.3736 1.15291 26.4527 1.13987 26.5156 1.11379C26.5785 1.08771 26.6253 1.04859 26.6559 0.99643C26.6874 0.944269 26.7031 0.879451 26.7031 0.801977C26.7031 0.723735 26.6874 0.657767 26.6559 0.604071C26.6253 0.550376 26.5781 0.509721 26.5144 0.482106C26.4515 0.453725 26.3721 0.439534 26.2762 0.439534H25.9403V2.38867H25.442ZM26.7146 1.3163L27.3003 2.38867H26.7503L26.1773 1.3163H26.7146Z" stroke="#501F68" stroke-width="8" mask="url(#path-1-inside-1_0_39)"/>
<path d="M29.0953 0.793922C29.0791 0.737926 29.0565 0.68845 29.0274 0.645493C28.9982 0.60177 28.9625 0.564951 28.9204 0.535035C28.8789 0.504352 28.8314 0.480956 28.7777 0.464847C28.7248 0.448739 28.6661 0.440685 28.6016 0.440685C28.4812 0.440685 28.3754 0.4706 28.2841 0.530432C28.1936 0.590264 28.123 0.677327 28.0724 0.791621C28.0217 0.905148 27.9964 1.04399 27.9964 1.20814C27.9964 1.3723 28.0213 1.5119 28.0712 1.62697C28.1211 1.74203 28.1916 1.82986 28.2829 1.89046C28.3742 1.95029 28.482 1.9802 28.6062 1.9802C28.719 1.9802 28.8153 1.96026 28.895 1.92037C28.9756 1.87972 29.037 1.82257 29.0791 1.74893C29.1221 1.67529 29.1436 1.58823 29.1436 1.48774L29.2448 1.5027H28.6373V1.1276H29.6234V1.42446C29.6234 1.63157 29.5797 1.80953 29.4922 1.95834C29.4048 2.10639 29.2843 2.22068 29.1309 2.30122C28.9775 2.381 28.8018 2.42089 28.6039 2.42089C28.383 2.42089 28.189 2.37218 28.0217 2.27476C27.8545 2.17657 27.7241 2.03735 27.6305 1.85709C27.5377 1.67606 27.4913 1.46128 27.4913 1.21275C27.4913 1.02174 27.5189 0.851453 27.5741 0.701873C27.6301 0.551527 27.7084 0.424192 27.8089 0.31987C27.9094 0.215548 28.0263 0.136156 28.1598 0.0816934C28.2933 0.0272311 28.4379 0 28.5936 0C28.7271 0 28.8513 0.0195604 28.9664 0.0586813C29.0814 0.097035 29.1835 0.151497 29.2724 0.222068C29.3622 0.292639 29.4354 0.376634 29.4922 0.474052C29.549 0.570704 29.5854 0.677327 29.6015 0.793922H29.0953Z" stroke="#501F68" stroke-width="8" mask="url(#path-1-inside-1_0_39)"/>
<path d="M29.962 2.38867V0.0322172H31.5498V0.442986H30.4602V1.00448H31.4681V1.41525H30.4602V1.9779H31.5544V2.38867H29.962Z" stroke="#501F68" stroke-width="8" mask="url(#path-1-inside-1_0_39)"/>
<path d="M31.9103 2.38867V0.0322172H32.84C33.0179 0.0322172 33.1698 0.0640508 33.2956 0.127718C33.4222 0.190618 33.5184 0.279982 33.5844 0.395811C33.6511 0.510872 33.6845 0.64626 33.6845 0.801977C33.6845 0.95846 33.6508 1.09308 33.5833 1.20584C33.5158 1.31783 33.4179 1.40375 33.2898 1.46358C33.1625 1.52341 33.0083 1.55333 32.8273 1.55333H32.2048V1.15291H32.7468C32.8419 1.15291 32.9209 1.13987 32.9838 1.11379C33.0467 1.08771 33.0935 1.04859 33.1242 0.99643C33.1556 0.944269 33.1713 0.879451 33.1713 0.801977C33.1713 0.723735 33.1556 0.657767 33.1242 0.604071C33.0935 0.550376 33.0463 0.509721 32.9826 0.482106C32.9197 0.453725 32.8403 0.439534 32.7445 0.439534H32.4085V2.38867H31.9103ZM33.1828 1.3163L33.7685 2.38867H33.2185L32.6455 1.3163H33.1828Z" stroke="#501F68" stroke-width="8" mask="url(#path-1-inside-1_0_39)"/>
<path d="M33.7648 0.0322172H34.3228L34.8602 1.04706H34.8832L35.4205 0.0322172H35.9786L35.1191 1.55563V2.38867H34.6243V1.55563L33.7648 0.0322172Z" stroke="#501F68" stroke-width="8" mask="url(#path-1-inside-1_0_39)"/>
<path d="M37.6427 2.42319C37.4801 2.42319 37.3397 2.39404 37.2216 2.33574C37.1034 2.27744 37.0125 2.19844 36.9489 2.09872C36.886 1.99823 36.8545 1.88624 36.8545 1.76274C36.8545 1.67069 36.8729 1.589 36.9097 1.51766C36.9466 1.44632 36.998 1.38073 37.0639 1.3209C37.1299 1.2603 37.2066 1.20009 37.294 1.14026L37.7508 0.839947C37.8099 0.80236 37.8532 0.762856 37.8809 0.721434C37.9085 0.679245 37.9223 0.633604 37.9223 0.584511C37.9223 0.537719 37.9035 0.49438 37.8659 0.454492C37.8283 0.414604 37.775 0.395044 37.706 0.395811C37.6599 0.395811 37.6201 0.406166 37.5863 0.426877C37.5526 0.446821 37.5261 0.473285 37.5069 0.506269C37.4885 0.538487 37.4793 0.574539 37.4793 0.614427C37.4793 0.66352 37.4931 0.713379 37.5207 0.764006C37.5483 0.814633 37.5852 0.868329 37.6312 0.925092C37.6772 0.981089 37.7274 1.04169 37.7819 1.10689L38.8991 2.38867H38.3883L37.4563 1.35082C37.3949 1.28101 37.3336 1.20814 37.2722 1.1322C37.2116 1.05549 37.161 0.974185 37.1203 0.888273C37.0797 0.801593 37.0593 0.707626 37.0593 0.606373C37.0593 0.492078 37.0858 0.38929 37.1387 0.298009C37.1924 0.206727 37.2676 0.134622 37.3642 0.0816934C37.4609 0.0279982 37.5736 0.00115065 37.7025 0.00115065C37.8283 0.00115065 37.9369 0.0268477 38.0281 0.0782417C38.1202 0.128869 38.1908 0.196371 38.2399 0.280749C38.2897 0.364361 38.3146 0.456409 38.3146 0.556896C38.3146 0.668122 38.287 0.768992 38.2318 0.859507C38.1773 0.949255 38.1006 1.0298 38.0017 1.10114L37.5207 1.44747C37.4555 1.49503 37.4072 1.54374 37.3757 1.5936C37.3451 1.64269 37.3297 1.68987 37.3297 1.73512C37.3297 1.79112 37.3435 1.84136 37.3711 1.88585C37.3988 1.93034 37.4379 1.96563 37.4885 1.99171C37.5391 2.01702 37.5986 2.02968 37.6668 2.02968C37.7497 2.02968 37.8314 2.01089 37.9119 1.9733C37.9932 1.93495 38.0669 1.88087 38.1328 1.81106C38.1996 1.74049 38.2529 1.65688 38.2928 1.56023C38.3327 1.46358 38.3526 1.35657 38.3526 1.23921H38.7588C38.7588 1.38342 38.743 1.51344 38.7116 1.62927C38.6801 1.74433 38.6364 1.84481 38.5804 1.93073C38.5244 2.01587 38.4604 2.08568 38.3883 2.14014C38.3653 2.15471 38.343 2.16852 38.3215 2.18156C38.3001 2.1946 38.2778 2.20841 38.2548 2.22298C38.1674 2.29355 38.0696 2.34456 37.9614 2.37601C37.854 2.40746 37.7478 2.42319 37.6427 2.42319Z" stroke="#501F68" stroke-width="8" mask="url(#path-1-inside-1_0_39)"/>
<path d="M39.7912 2.38867V0.0322172H41.3791V0.442986H40.2894V1.00448H41.2974V1.41525H40.2894V1.9779H41.3837V2.38867H39.7912Z" stroke="#501F68" stroke-width="8" mask="url(#path-1-inside-1_0_39)"/>
<path d="M43.7105 0.0322172V2.38867H43.2802L42.255 0.905532H42.2377V2.38867H41.7395V0.0322172H42.1767L43.1939 1.51421H43.2146V0.0322172H43.7105Z" stroke="#501F68" stroke-width="8" mask="url(#path-1-inside-1_0_39)"/>
<path d="M44.9218 2.38867H44.0865V0.0322172H44.9287C45.1658 0.0322172 45.3698 0.0793923 45.5409 0.173743C45.7119 0.267326 45.8435 0.401947 45.9355 0.577607C46.0283 0.753267 46.0747 0.963446 46.0747 1.20814C46.0747 1.45361 46.0283 1.66455 45.9355 1.84098C45.8435 2.01741 45.7112 2.1528 45.5386 2.24715C45.3667 2.3415 45.1612 2.38867 44.9218 2.38867ZM44.5847 1.96179H44.9011C45.0484 1.96179 45.1723 1.93571 45.2728 1.88355C45.374 1.83062 45.45 1.74893 45.5006 1.63847C45.552 1.52725 45.5777 1.3838 45.5777 1.20814C45.5777 1.03402 45.552 0.891724 45.5006 0.781266C45.45 0.670807 45.3744 0.589497 45.2739 0.537336C45.1734 0.485175 45.0496 0.459094 44.9023 0.459094H44.5847V1.96179Z" stroke="#501F68" stroke-width="8" mask="url(#path-1-inside-1_0_39)"/>
<path d="M48.5736 1.21044C48.5736 1.46741 48.5249 1.68603 48.4275 1.86629C48.3308 2.04656 48.1989 2.18425 48.0317 2.27936C47.8652 2.37371 47.678 2.42089 47.4702 2.42089C47.2608 2.42089 47.0728 2.37333 46.9064 2.27821C46.7399 2.18309 46.6084 2.0454 46.5117 1.86514C46.4151 1.68488 46.3667 1.46665 46.3667 1.21044C46.3667 0.953474 46.4151 0.734858 46.5117 0.554595C46.6084 0.374332 46.7399 0.237026 46.9064 0.142676C47.0728 0.0475587 47.2608 0 47.4702 0C47.678 0 47.8652 0.0475587 48.0317 0.142676C48.1989 0.237026 48.3308 0.374332 48.4275 0.554595C48.5249 0.734858 48.5736 0.953474 48.5736 1.21044ZM48.0685 1.21044C48.0685 1.04399 48.0436 0.903614 47.9937 0.78932C47.9446 0.675026 47.8752 0.588346 47.7854 0.529282C47.6957 0.470217 47.5906 0.440685 47.4702 0.440685C47.3497 0.440685 47.2446 0.470217 47.1549 0.529282C47.0652 0.588346 46.9954 0.675026 46.9455 0.78932C46.8964 0.903614 46.8719 1.04399 46.8719 1.21044C46.8719 1.3769 46.8964 1.51727 46.9455 1.63157C46.9954 1.74586 47.0652 1.83254 47.1549 1.89161C47.2446 1.95067 47.3497 1.9802 47.4702 1.9802C47.5906 1.9802 47.6957 1.95067 47.7854 1.89161C47.8752 1.83254 47.9446 1.74586 47.9937 1.63157C48.0436 1.51727 48.0685 1.3769 48.0685 1.21044Z" stroke="#501F68" stroke-width="8" mask="url(#path-1-inside-1_0_39)"/>
<path d="M50.1853 0.709928C50.1761 0.617112 50.1366 0.545007 50.0668 0.493613C49.997 0.442219 49.9023 0.416522 49.7826 0.416522C49.7013 0.416522 49.6327 0.428028 49.5767 0.45104C49.5207 0.473285 49.4777 0.504352 49.4478 0.54424C49.4187 0.584127 49.4041 0.629385 49.4041 0.680012C49.4026 0.722201 49.4114 0.759021 49.4305 0.790471C49.4505 0.821921 49.4777 0.849152 49.5122 0.872164C49.5468 0.894409 49.5866 0.91397 49.6319 0.930845C49.6772 0.946954 49.7255 0.960761 49.7769 0.972267L49.9886 1.02289C50.0914 1.04591 50.1857 1.07659 50.2716 1.11494C50.3576 1.1533 50.432 1.20047 50.4949 1.25647C50.5578 1.31246 50.6065 1.37843 50.641 1.45437C50.6763 1.53031 50.6943 1.61738 50.6951 1.71556C50.6943 1.85977 50.6575 1.98481 50.5846 2.09066C50.5125 2.19575 50.4082 2.27744 50.2716 2.33574C50.1359 2.39327 49.9721 2.42204 49.7803 2.42204C49.5901 2.42204 49.4244 2.39289 49.2833 2.33459C49.1429 2.27629 49.0332 2.19 48.9542 2.0757C48.8759 1.96064 48.8349 1.81835 48.8311 1.64883H49.3132C49.3186 1.72784 49.3412 1.7938 49.3811 1.84673C49.4217 1.89889 49.4758 1.9384 49.5433 1.96525C49.6116 1.99133 49.6887 2.00437 49.7746 2.00437C49.859 2.00437 49.9322 1.99209 49.9943 1.96755C50.0572 1.943 50.106 1.90887 50.1405 1.86514C50.175 1.82142 50.1923 1.77118 50.1923 1.71441C50.1923 1.66148 50.1765 1.61699 50.1451 1.58094C50.1144 1.54489 50.0691 1.51421 50.0093 1.48889C49.9502 1.46358 49.8778 1.44057 49.7918 1.41986L49.5353 1.35542C49.3366 1.3071 49.1797 1.23154 49.0647 1.12875C48.9496 1.02596 48.8924 0.887505 48.8932 0.713379C48.8924 0.570704 48.9304 0.446054 49.0071 0.339431C49.0846 0.232807 49.1908 0.14958 49.3258 0.0897478C49.4608 0.0299159 49.6143 0 49.7861 0C49.961 0 50.1136 0.0299159 50.244 0.0897478C50.3752 0.14958 50.4772 0.232807 50.5501 0.339431C50.623 0.446054 50.6605 0.569553 50.6628 0.709928H50.1853Z" stroke="#501F68" stroke-width="8" mask="url(#path-1-inside-1_0_39)"/>
<path d="M53.0737 0.857206H52.5697C52.5605 0.792005 52.5417 0.734091 52.5133 0.683464C52.485 0.63207 52.4485 0.588346 52.404 0.552294C52.3595 0.516241 52.3081 0.488627 52.2498 0.46945C52.1923 0.450273 52.1298 0.440685 52.0623 0.440685C51.9403 0.440685 51.8341 0.470984 51.7436 0.531583C51.6531 0.591415 51.5829 0.678861 51.533 0.793922C51.4832 0.908216 51.4582 1.04706 51.4582 1.21044C51.4582 1.37843 51.4832 1.51958 51.533 1.63387C51.5836 1.74816 51.6542 1.83446 51.7447 1.89276C51.8353 1.95105 51.94 1.9802 52.0588 1.9802C52.1256 1.9802 52.1873 1.97138 52.2441 1.95374C52.3016 1.9361 52.3526 1.9104 52.3971 1.87665C52.4416 1.84213 52.4784 1.80032 52.5076 1.75123C52.5375 1.70214 52.5582 1.64614 52.5697 1.58324L53.0737 1.58554C53.0606 1.6937 53.028 1.79802 52.9759 1.89851C52.9245 1.99823 52.8551 2.08759 52.7676 2.1666C52.6809 2.24484 52.5774 2.30698 52.457 2.353C52.3373 2.39826 52.2019 2.42089 52.0508 2.42089C51.8406 2.42089 51.6527 2.37333 51.487 2.27821C51.3221 2.18309 51.1917 2.0454 51.0958 1.86514C51.0007 1.68488 50.9531 1.46665 50.9531 1.21044C50.9531 0.953474 51.0014 0.734858 51.0981 0.554595C51.1947 0.374332 51.3259 0.237026 51.4916 0.142676C51.6573 0.0475587 51.8437 0 52.0508 0C52.1873 0 52.3139 0.0191769 52.4305 0.0575306C52.5479 0.0958844 52.6518 0.151881 52.7423 0.22552C52.8328 0.298392 52.9065 0.387756 52.9632 0.493613C53.0208 0.599469 53.0576 0.720667 53.0737 0.857206Z" stroke="#501F68" stroke-width="8" mask="url(#path-1-inside-1_0_39)"/>
<path d="M55.5608 1.21044C55.5608 1.46741 55.512 1.68603 55.4146 1.86629C55.318 2.04656 55.186 2.18425 55.0188 2.27936C54.8524 2.37371 54.6652 2.42089 54.4573 2.42089C54.2479 2.42089 54.06 2.37333 53.8935 2.27821C53.7271 2.18309 53.5955 2.0454 53.4989 1.86514C53.4022 1.68488 53.3539 1.46665 53.3539 1.21044C53.3539 0.953474 53.4022 0.734858 53.4989 0.554595C53.5955 0.374332 53.7271 0.237026 53.8935 0.142676C54.06 0.0475587 54.2479 0 54.4573 0C54.6652 0 54.8524 0.0475587 55.0188 0.142676C55.186 0.237026 55.318 0.374332 55.4146 0.554595C55.512 0.734858 55.5608 0.953474 55.5608 1.21044ZM55.0556 1.21044C55.0556 1.04399 55.0307 0.903614 54.9809 0.78932C54.9318 0.675026 54.8623 0.588346 54.7726 0.529282C54.6828 0.470217 54.5778 0.440685 54.4573 0.440685C54.3369 0.440685 54.2318 0.470217 54.1421 0.529282C54.0523 0.588346 53.9825 0.675026 53.9326 0.78932C53.8836 0.903614 53.859 1.04399 53.859 1.21044C53.859 1.3769 53.8836 1.51727 53.9326 1.63157C53.9825 1.74586 54.0523 1.83254 54.1421 1.89161C54.2318 1.95067 54.3369 1.9802 54.4573 1.9802C54.5778 1.9802 54.6828 1.95067 54.7726 1.89161C54.8623 1.83254 54.9318 1.74586 54.9809 1.63157C55.0307 1.51727 55.0556 1.3769 55.0556 1.21044Z" stroke="#501F68" stroke-width="8" mask="url(#path-1-inside-1_0_39)"/>
<path d="M55.8942 2.38867V0.0322172H56.8239C57.0026 0.0322172 57.1549 0.066352 57.2807 0.134622C57.4065 0.202124 57.5023 0.296091 57.5683 0.416522C57.635 0.536185 57.6684 0.674259 57.6684 0.830742C57.6684 0.987225 57.6347 1.1253 57.5672 1.24496C57.4997 1.36463 57.4019 1.45783 57.2738 1.52456C57.1464 1.5913 56.9922 1.62466 56.8112 1.62466H56.2186V1.2254H56.7307C56.8266 1.2254 56.9056 1.20891 56.9677 1.17593C57.0306 1.14217 57.0774 1.09577 57.1081 1.0367C57.1395 0.97687 57.1552 0.908216 57.1552 0.830742C57.1552 0.7525 57.1395 0.684231 57.1081 0.625933C57.0774 0.566868 57.0306 0.521227 56.9677 0.48901C56.9048 0.456026 56.825 0.439534 56.7284 0.439534H56.3924V2.38867H55.8942Z" stroke="#501F68" stroke-width="8" mask="url(#path-1-inside-1_0_39)"/>
<path d="M57.8183 0.0322172H58.3763L58.9137 1.04706H58.9367L59.474 0.0322172H60.0321L59.1726 1.55563V2.38867H58.6778V1.55563L57.8183 0.0322172Z" stroke="#501F68" stroke-width="8" mask="url(#path-1-inside-1_0_39)"/>
<path d="M63.062 0.857206H62.558C62.5488 0.792005 62.53 0.734091 62.5016 0.683464C62.4732 0.63207 62.4368 0.588346 62.3923 0.552294C62.3478 0.516241 62.2964 0.488627 62.2381 0.46945C62.1806 0.450273 62.1181 0.440685 62.0506 0.440685C61.9286 0.440685 61.8224 0.470984 61.7319 0.531583C61.6414 0.591415 61.5712 0.678861 61.5213 0.793922C61.4714 0.908216 61.4465 1.04706 61.4465 1.21044C61.4465 1.37843 61.4714 1.51958 61.5213 1.63387C61.5719 1.74816 61.6425 1.83446 61.733 1.89276C61.8235 1.95105 61.9282 1.9802 62.0471 1.9802C62.1139 1.9802 62.1756 1.97138 62.2324 1.95374C62.2899 1.9361 62.3409 1.9104 62.3854 1.87665C62.4299 1.84213 62.4667 1.80032 62.4959 1.75123C62.5258 1.70214 62.5465 1.64614 62.558 1.58324L63.062 1.58554C63.0489 1.6937 63.0163 1.79802 62.9642 1.89851C62.9128 1.99823 62.8434 2.08759 62.7559 2.1666C62.6692 2.24484 62.5657 2.30698 62.4452 2.353C62.3256 2.39826 62.1902 2.42089 62.0391 2.42089C61.8289 2.42089 61.641 2.37333 61.4753 2.27821C61.3104 2.18309 61.18 2.0454 61.0841 1.86514C60.989 1.68488 60.9414 1.46665 60.9414 1.21044C60.9414 0.953474 60.9897 0.734858 61.0864 0.554595C61.183 0.374332 61.3142 0.237026 61.4799 0.142676C61.6456 0.0475587 61.832 0 62.0391 0C62.1756 0 62.3022 0.0191769 62.4188 0.0575306C62.5361 0.0958844 62.6401 0.151881 62.7306 0.22552C62.8211 0.298392 62.8948 0.387756 62.9515 0.493613C63.009 0.599469 63.0459 0.720667 63.062 0.857206Z" stroke="#501F68" stroke-width="8" mask="url(#path-1-inside-1_0_39)"/>
<path d="M63.3836 2.38867V0.0322172H63.8818V1.9779H64.892V2.38867H63.3836Z" stroke="#501F68" stroke-width="8" mask="url(#path-1-inside-1_0_39)"/>
<path d="M65.6846 0.0322172V2.38867H65.1863V0.0322172H65.6846Z" stroke="#501F68" stroke-width="8" mask="url(#path-1-inside-1_0_39)"/>
<path d="M68.0298 0.0322172V2.38867H67.5995L66.5743 0.905532H66.557V2.38867H66.0588V0.0322172H66.496L67.5132 1.51421H67.5339V0.0322172H68.0298Z" stroke="#501F68" stroke-width="8" mask="url(#path-1-inside-1_0_39)"/>
<path d="M68.904 0.0322172V2.38867H68.4058V0.0322172H68.904Z" stroke="#501F68" stroke-width="8" mask="url(#path-1-inside-1_0_39)"/>
<path d="M71.3574 0.857206H70.8535C70.8442 0.792005 70.8255 0.734091 70.7971 0.683464C70.7687 0.63207 70.7323 0.588346 70.6878 0.552294C70.6433 0.516241 70.5919 0.488627 70.5336 0.46945C70.4761 0.450273 70.4135 0.440685 70.346 0.440685C70.2241 0.440685 70.1178 0.470984 70.0273 0.531583C69.9368 0.591415 69.8666 0.678861 69.8168 0.793922C69.7669 0.908216 69.742 1.04706 69.742 1.21044C69.742 1.37843 69.7669 1.51958 69.8168 1.63387C69.8674 1.74816 69.938 1.83446 70.0285 1.89276C70.119 1.95105 70.2237 1.9802 70.3426 1.9802C70.4093 1.9802 70.4711 1.97138 70.5278 1.95374C70.5854 1.9361 70.6364 1.9104 70.6809 1.87665C70.7254 1.84213 70.7622 1.80032 70.7913 1.75123C70.8212 1.70214 70.8419 1.64614 70.8535 1.58324L71.3574 1.58554C71.3444 1.6937 71.3118 1.79802 71.2596 1.89851C71.2082 1.99823 71.1388 2.08759 71.0514 2.1666C70.9647 2.24484 70.8611 2.30698 70.7407 2.353C70.621 2.39826 70.4856 2.42089 70.3345 2.42089C70.1244 2.42089 69.9364 2.37333 69.7707 2.27821C69.6058 2.18309 69.4754 2.0454 69.3795 1.86514C69.2844 1.68488 69.2368 1.46665 69.2368 1.21044C69.2368 0.953474 69.2852 0.734858 69.3818 0.554595C69.4785 0.374332 69.6096 0.237026 69.7753 0.142676C69.941 0.0475587 70.1274 0 70.3345 0C70.4711 0 70.5976 0.0191769 70.7142 0.0575306C70.8316 0.0958844 70.9355 0.151881 71.026 0.22552C71.1166 0.298392 71.1902 0.387756 71.247 0.493613C71.3045 0.599469 71.3413 0.720667 71.3574 0.857206Z" stroke="#501F68" stroke-width="8" mask="url(#path-1-inside-1_0_39)"/>
</g>
</svg>
